<svg width="480" height="473" viewBox="0 0 480 473" fill="none" xmlns="http://www.w3.org/2000/svg">
<path d="M148.764 97.1001C146.353 106.42 141.465 112.685 134.199 116.061C127.367 119.408 119.325 119.743 110.005 117.331C97.7555 114.162 88.7433 106.717 82.8695 94.8271C77.2574 83.5733 76.0875 71.622 79.3253 59.1062C82.632 46.3241 89.5933 35.3398 100.441 26.3553C112.23 16.4779 124.333 13.0743 136.849 16.3121C140.976 17.3799 144.661 19.6116 148.104 22.7753C151.547 25.939 153.668 27.6242 154.601 27.8653C155.133 28.0031 155.868 27.909 156.873 27.3168C157.844 26.8577 158.712 26.7981 159.378 26.9703C162.904 28.1666 164.444 31.5483 163.998 37.1152C163.817 38.915 163.119 42.712 161.638 48.4373C160.914 51.2334 159.096 53.3201 156.316 54.7317C153.402 56.1089 150.765 56.4209 148.102 55.732C145.439 55.0431 143.692 52.4603 142.728 47.9493C141.631 43.4037 139.884 40.821 137.221 40.1321C131.895 38.7543 127.084 39.7824 122.687 43.0488C118.66 45.9847 116.128 49.7333 114.957 54.2603C111.753 66.643 114.829 73.9733 124.149 76.3844C126.413 76.97 130.387 76.4354 136.239 74.6819C142.09 72.9285 145.832 72.1918 147.43 72.6052C148.362 72.8463 149.058 73.4524 149.551 74.2903C151.748 78.9783 151.486 86.5815 148.764 97.1001ZM155.552 92.1794C158.032 82.5928 163.373 74.0304 171.771 66.8271C180.908 58.9628 190.304 56.1375 199.625 58.5487C209.078 60.9943 215.629 67.5191 219.412 78.1575C222.637 87.6573 222.957 97.4001 220.374 107.386C218.032 116.44 212.799 124.036 204.879 129.942C196.352 136.544 187.596 138.541 178.809 136.267C168.423 133.581 161.162 128.151 157.228 119.746C153.289 111.908 152.797 102.831 155.552 92.1794ZM196.5 98.0846C197.636 93.6908 198.142 88.9915 198.282 84.0559C198.372 77.1183 196.97 73.2041 194.041 72.4463C191.91 71.8952 190.101 72.8478 188.416 74.9688C186.967 76.7249 186.017 78.7519 185.431 81.0154C184.363 85.143 184.03 89.1765 184.466 92.9827C184.957 98.2238 186.901 101.142 190.363 102.037C191.694 102.382 192.863 102.258 194.071 101.434C195.278 100.61 196.121 99.5492 196.5 98.0846ZM230.19 87.9066C229.331 86.8322 229.311 85.2642 229.793 83.4002C230.689 79.9384 234.045 77.3973 240.03 75.6783C247.721 73.4061 254.895 73.1312 261.419 74.819C264.082 75.5079 264.833 77.5488 263.537 80.9073L253.566 105.176C253.29 106.242 253.083 107.04 253.01 107.874C252.732 113.342 254.873 116.595 259.4 117.766C260.199 117.973 260.998 118.18 262.098 118.322C264.031 118.538 266.042 117.354 268.096 114.902C269.58 113.013 270.698 110.887 271.283 108.624C272.317 104.629 272.241 101.626 271.091 99.4821C269.907 97.471 269.689 95.5679 270.171 93.7038C271.411 88.9106 274.772 85.8025 280.323 84.1133C284.938 82.75 289.942 82.6241 295.135 83.9674C297.265 84.5185 299.056 85.8341 300.309 87.5789C301.562 89.3237 301.914 91.2613 301.362 93.3916C300.329 97.386 298.281 103.107 295.351 110.588C292.288 118.035 290.373 123.79 289.374 127.651C288.926 129.382 289.475 131.655 291.054 134.337C292.599 137.151 293.384 139.059 293.143 139.991C291.834 145.051 288.76 149.795 283.92 154.226C278.509 159.218 273.49 161.045 268.697 159.805C267.898 159.599 266.64 158.421 265.258 156.075C263.842 153.862 262.619 152.551 261.82 152.344C261.021 152.137 258.551 152.351 254.675 153.053C250.667 153.721 247.265 153.693 244.336 152.935C227.959 148.698 221.697 139.407 225.451 124.894C226.726 119.968 229.187 112.649 233.137 102.875C234.592 96.1484 234.393 91.9772 232.805 90.4298C231.083 88.8479 230.156 88.0398 230.19 87.9066ZM338.721 145.674C340.122 145.752 342.326 145.47 345.2 144.793C347.64 144.145 349.677 143.962 351.008 144.306C353.405 144.926 355.294 146.409 356.745 148.489C358.195 150.569 358.576 152.941 357.956 155.338C355.993 162.927 351.578 168.461 344.711 171.941C337.845 175.421 330.7 176.13 323.111 174.166C313.258 171.617 306.5 165.892 302.906 156.722C299.47 148.589 299.11 139.546 301.728 129.427C304.38 119.174 309.553 110.711 317.345 104.203C326.009 97.0687 335.268 94.776 345.254 97.3593C352.444 99.2194 357.786 102.732 361.447 107.799C365.271 113.334 366.354 119.581 364.563 126.504C363.805 129.434 361.622 131.284 358.047 131.922C354.774 132.495 351.007 132.231 346.746 131.129C341.686 129.82 337.632 127.919 334.717 125.46C333.755 124.785 333.025 124.312 332.359 124.14C331.028 123.795 329.924 124.22 329.081 125.28C328.539 126.277 328.165 127.174 327.889 128.239C327.132 131.169 327.572 134.408 329.211 137.957C330.85 141.506 333.198 143.961 336.059 144.985L338.721 145.674ZM341.493 108.603C339.229 108.018 337.06 108.167 334.851 109.016C332.643 109.865 331.431 111.256 330.879 113.387C330.432 115.118 331.823 116.33 335.151 117.191C340.877 118.672 343.974 119.331 344.442 119.168C345.507 119.444 346.281 118.65 346.694 117.052C347.176 115.188 346.791 113.383 345.804 111.707C344.782 110.165 343.357 109.086 341.493 108.603ZM410.636 178.2C409.224 183.659 405.291 187.329 398.971 189.245C393.553 190.969 388.016 190.957 382.291 189.476C367.644 185.687 362.113 176.869 365.695 163.022C366.659 159.294 368.939 153.775 372.535 146.466C376.096 139.29 378.41 133.638 379.444 129.644C380.408 125.916 379.963 123.243 378.306 121.962C376.476 121.347 374.646 120.732 372.984 120.017C370.957 119.067 370.306 117.194 371.063 114.264C371.624 111 372.841 109.042 374.482 108.188C375.488 107.596 377.189 107.61 379.452 108.195C379.718 108.264 380.083 108.501 380.616 108.638L381.814 108.948C384.477 109.637 386.38 109.419 387.79 108.363C389.737 106.878 391.826 104.293 393.989 100.875C396.019 97.4228 397.704 95.3017 398.778 94.4432C400.76 92.8249 403.432 92.3798 406.76 93.2409C412.486 94.722 414.726 98.1428 413.348 103.469C413.21 104.001 412.836 104.899 412.561 105.964L411.906 108.494C411.183 111.29 411.066 113.39 411.786 114.997C412.833 117.541 414.555 119.123 417.084 119.777C417.484 119.881 418.15 120.053 419.116 120.161C419.915 120.368 420.615 120.407 421.015 120.51C423.012 121.027 423.56 123.299 422.596 127.028C421.7 130.489 419.521 131.772 416.06 130.877L414.062 130.36C413.13 130.119 412.499 129.814 412.1 129.71C407.306 128.47 404.118 130.913 402.602 136.771C401.603 140.632 401.024 146.165 401.166 153.305C401.096 161.81 402.189 166.923 404.31 168.608C406.002 169.756 407.56 170.869 409.252 172.017C410.91 173.298 411.394 175.27 410.636 178.2Z" fill="#FFC700"/>
<path d="M16.3191 405.392C14.7893 401.266 16.5935 396.636 21.8127 391.328C26.1104 387.095 30.6615 383.941 35.4328 382.172C37.2382 381.503 38.6378 381.717 39.3259 382.782C39.2303 382.524 39.7562 383.943 40.8079 386.78L41.5105 388.279C41.7017 388.795 41.9263 389.005 42.4088 389.12C42.7623 389.282 43.197 389.268 43.4071 389.043C44.2141 388.45 45.4792 385.928 47.3789 381.557C48.9208 378.198 51.5376 375.762 55.2773 374.375C59.1459 372.941 62.9579 373.728 66.7132 376.736C69.7615 379.42 72.1317 382.648 73.6614 386.774C75 390.385 74.81 393.829 73.4449 397.269C71.9509 400.756 69.463 403.145 65.9812 404.436C63.4021 405.392 61.181 405.335 59.3178 404.266C58.1616 403.521 56.5419 401.922 54.6686 399.242C53.866 398.66 53.0778 398.512 52.2563 398.67C50.7088 399.244 50.1364 401.656 50.7968 405.811C51.2371 408.582 51.9831 411.385 52.987 414.093C54.8036 418.994 57.5562 423.254 61.3738 426.825C63.0414 428.554 66.123 430.932 70.6665 434.088C73.8771 436.418 75.8982 438.309 76.4719 439.856C79.0534 446.82 72.9459 452.897 58.2452 458.347C44.0602 463.606 35.5336 462.366 32.6653 454.629C32.8565 455.145 32.922 450.574 32.9573 441.173C32.9927 431.773 32.1977 424.881 30.6201 420.625C28.9469 416.112 27.8141 413.451 27.3505 412.597C26.3566 411.498 24.4456 410.3 21.5841 409.307C18.5936 408.362 16.8927 406.939 16.3191 405.392ZM125.126 400.258C126.32 399.522 127.968 398.031 129.94 395.833C131.573 393.908 133.139 392.594 134.429 392.116C136.75 391.255 139.148 391.393 141.527 392.271C143.906 393.149 145.573 394.878 146.434 397.199C149.159 404.549 148.698 411.614 145.05 418.393C141.403 425.172 135.945 429.836 128.595 432.561C119.052 436.098 110.234 435.26 102.045 429.789C94.578 425.077 89.1161 417.861 85.4829 408.06C81.8019 398.131 81.2114 388.229 83.8881 378.436C86.9227 367.631 93.2114 360.459 102.883 356.874C109.846 354.292 116.237 354.123 122.137 356.19C128.438 358.547 132.896 363.055 135.382 369.761C136.434 372.598 135.699 375.364 133.13 377.929C130.771 380.271 127.528 382.206 123.402 383.736C118.502 385.553 114.088 386.309 110.291 385.956C109.116 385.952 108.246 385.981 107.602 386.22C106.312 386.698 105.648 387.677 105.563 389.029C105.687 390.156 105.893 391.107 106.275 392.138C107.327 394.975 109.539 397.382 112.912 399.359C116.285 401.335 119.615 402.008 122.547 401.214L125.126 400.258ZM106.22 368.251C104.028 369.063 102.333 370.425 101.006 372.384C99.6783 374.343 99.4783 376.177 100.243 378.24C100.865 379.917 102.699 380.117 105.923 378.922C111.468 376.866 114.386 375.638 114.677 375.236C115.709 374.854 115.89 373.76 115.316 372.212C114.647 370.407 113.3 369.146 111.532 368.335C109.812 367.652 108.026 367.581 106.22 368.251ZM184.506 378.245C186.44 377.528 188.393 376.07 190.446 373.696C192.547 371.45 194.195 369.959 195.484 369.481C197.806 368.621 200.204 368.759 202.583 369.637C204.962 370.515 206.629 372.244 207.49 374.565C210.215 381.915 209.753 388.98 206.106 395.759C202.459 402.538 197.001 407.202 189.65 409.927C180.366 413.369 171.724 412.612 163.502 407.446C155.954 402.91 150.54 395.824 147.002 386.281C143.082 375.707 142.396 365.547 145.249 355.835C148.38 345.288 155.055 337.973 165.372 334.148C170.788 332.14 176.085 331.79 181.215 332.968C186.876 334.39 190.775 337.785 192.687 342.943C193.595 345.393 193.844 347.648 193.386 349.578C192.862 352.119 191.391 353.691 189.199 354.504C187.264 355.221 184.642 354.873 181.155 353.379C177.667 351.885 174.868 351.456 172.934 352.173C169.839 353.32 167.962 355.776 166.951 359.378C165.939 362.98 166.184 366.409 167.331 369.504C168.478 372.599 170.868 375.087 174.498 376.968C178.177 378.978 181.411 379.392 184.506 378.245ZM207.81 363.299C204.368 354.014 203.858 343.935 206.635 333.225C209.641 321.551 215.738 313.863 224.765 310.517C233.921 307.123 243.025 308.734 252.208 315.304C260.282 321.258 266.112 329.071 269.698 338.742C272.948 347.511 272.994 356.735 269.868 366.108C266.642 376.397 260.597 383.039 252.086 386.194C242.028 389.923 232.967 389.615 224.936 384.965C217.225 380.783 211.634 373.615 207.81 363.299ZM244.789 344.749C243.212 340.494 240.942 336.349 238.237 332.218C234.347 326.472 230.96 324.061 228.123 325.113C226.059 325.878 225.119 327.693 224.948 330.397C224.762 332.666 225.14 334.873 225.953 337.065C227.435 341.062 229.466 344.563 231.998 347.438C235.396 351.459 238.659 352.743 242.011 351.5C243.301 351.022 244.189 350.252 244.709 348.886C245.23 347.52 245.315 346.168 244.789 344.749ZM265.916 312.863C264.386 308.736 266.19 304.107 271.409 298.799C275.707 294.565 280.258 291.411 285.029 289.643C286.835 288.973 288.234 289.188 288.922 290.253C288.827 289.995 289.353 291.413 290.404 294.25L291.107 295.75C291.298 296.266 291.523 296.476 292.005 296.59C292.359 296.753 292.793 296.738 293.004 296.514C293.811 295.921 295.076 293.399 296.975 289.027C298.517 285.669 301.134 283.232 304.874 281.846C308.742 280.412 312.554 281.199 316.31 284.207C319.358 286.89 321.728 290.119 323.258 294.245C324.597 297.856 324.406 301.3 323.041 304.739C321.547 308.227 319.06 310.616 315.578 311.907C312.999 312.863 310.778 312.806 308.914 311.737C307.758 310.992 306.138 309.392 304.265 306.713C303.463 306.131 302.674 305.983 301.853 306.141C300.305 306.714 299.733 309.127 300.393 313.282C300.834 316.052 301.58 318.856 302.584 321.564C304.4 326.464 307.153 330.724 310.97 334.296C312.638 336.025 315.72 338.402 320.263 341.558C323.474 343.888 325.495 345.779 326.068 347.327C328.65 354.29 322.542 360.368 307.842 365.818C293.657 371.076 285.13 369.837 282.262 362.1C282.453 362.616 282.519 358.044 282.554 348.644C282.589 339.244 281.794 332.351 280.217 328.096C278.543 323.582 277.411 320.922 276.947 320.067C275.953 318.969 274.042 317.771 271.181 316.778C268.19 315.833 266.489 314.41 265.916 312.863ZM357.428 279.671C354.591 280.723 353.293 283.551 353.533 288.155C353.553 291.375 354.361 294.742 355.652 298.224C356.799 301.319 358.19 303.883 360.034 305.693C362.471 308.31 364.931 309.011 367.639 308.008C369.316 307.386 370.462 306.521 371.078 305.413C371.985 303.903 370.655 297.942 366.926 287.884C364.393 281.049 361.168 278.285 357.428 279.671ZM398.297 296.936C399.081 298.258 401.422 300.617 405.063 304.108C408.159 306.921 410.066 309.294 410.83 311.357C412.36 315.484 410.379 320.032 405.112 325.211C400.733 329.621 396.263 332.598 391.621 334.319C389.945 334.941 387.819 335.142 385.068 334.842C382.316 334.542 380.272 334.566 379.111 334.997C377.822 335.475 376.208 336.66 374.044 338.342C371.752 340.072 369.961 341.176 368.672 341.654C362.095 344.092 355.149 341.973 347.657 335.216C341.465 329.591 337.078 323.297 334.401 316.076C331.629 308.596 330.599 299.884 331.441 289.891C332.355 278.112 336.294 270.931 342.999 268.446C347.255 266.868 351.988 266.58 357.023 267.5C358.165 267.81 359.789 268.235 361.814 268.951C363.357 269.552 364.146 269.7 364.403 269.605C361.803 263.381 359.256 260.072 357.068 259.71C354.881 259.347 353.658 259.214 353.433 259.004C352.115 258.613 351.25 257.466 350.58 255.661C349.338 252.308 350.593 248.176 354.522 243.346C359.584 237.216 365.314 232.891 371.633 230.549C374.212 229.593 375.994 230.839 376.85 234.335L380.854 252.652C381.676 256.454 383.231 262.625 385.774 271.069C388.987 281.319 393.189 289.882 398.297 296.936ZM403.664 265.024C401.56 259.35 401.998 254.201 405.14 249.223C407.861 244.694 412.059 241.377 417.99 239.178C425.212 236.501 432.229 236.834 438.688 240.013C443.862 242.495 447.039 245.131 448.09 247.968C449.333 251.321 447.505 253.905 442.605 255.722C440.154 256.63 437.341 255.766 433.987 253.05C430.68 250.462 428.206 249.326 426.658 249.899C425.627 250.282 424.739 251.051 424.123 252.159C423.507 253.268 423.407 254.185 423.789 255.216C424.65 257.538 427.927 259.256 433.573 260.243C441.455 261.722 446.858 263.239 450.04 264.7C456.594 268.137 461.435 273.676 464.303 281.413C466.693 287.861 466.041 294.41 462.379 300.755C458.927 306.874 454.018 311.041 447.571 313.431C430.033 319.933 418.252 315.06 412.181 298.682C410.747 294.814 411.319 292.401 414.156 291.35C414.93 291.063 416.105 291.067 417.586 291.105C419.067 291.143 420.323 290.97 421.096 290.684C424.32 289.489 425.423 287.32 424.18 283.967C423.367 281.775 420.061 279.187 414.519 276.107C408.849 273.076 405.289 269.409 403.664 265.024Z" fill="#FFC700"/>
</svg>
