<svg width="142" height="90" viewBox="0 0 142 90" fill="none" xmlns="http://www.w3.org/2000/svg">
<g filter="url(#filter0_b_29_71)">
<path d="M23.6402 13.307C23.6147 10.0656 23.3084 8.02696 22.7215 7.33604C22.5173 7.16545 22.2366 6.91808 21.8708 6.58541C21.6241 6.18451 21.4965 5.63007 21.4965 4.90503C21.4965 3.55731 22.0835 2.54225 23.2659 1.85986C24.2186 1.27983 25.4181 0.989816 26.8727 1.00688C28.8718 1.01541 30.2839 1.36513 31.1261 2.03046C31.8066 2.56784 32.1469 3.39524 32.1469 4.51266C32.1469 5.18652 32.0363 5.67272 31.8237 5.97979C31.611 6.28687 31.3898 6.56836 31.1771 6.84131C30.9645 7.11427 30.7858 7.48105 30.6497 7.94167C30.2414 9.40028 30.0372 11.6095 30.0372 14.4841C30.0372 14.45 30.0372 14.4244 30.0372 14.3903C30.0798 15.6356 30.2074 17.7766 30.4115 20.728C30.5902 23.3637 30.6838 25.3511 30.6838 26.7671C30.6838 29.9487 30.0032 32.3627 28.6421 34.0516C27.2811 35.732 25.3841 36.4912 22.9596 36.1926C20.5352 35.8855 18.6382 34.7852 17.2771 33.0877C15.8225 31.2794 15.0994 28.9422 15.0994 26.0421C15.0994 25.2403 15.2611 24.3617 15.5758 23.3807C15.9586 22.161 16.435 21.5127 17.0049 21.4615C17.2771 21.4189 17.5153 21.4189 17.7195 21.4445C18.3575 21.5468 18.9019 22.178 19.3698 23.3552C19.8377 24.5323 20.4331 25.1635 21.1562 25.2488C22.9511 25.4535 23.8443 23.2954 23.8443 18.5614C23.8443 17.8193 23.8018 16.1901 23.7082 13.5884C23.6657 13.4946 23.6402 13.3923 23.6402 13.2984V13.307Z" fill="#F0E8D7"/>
<path d="M43.1805 25.4791C43.5463 25.3341 44.0397 25.0014 44.6777 24.4811C45.2477 23.9949 45.6985 23.7219 46.0388 23.6622C46.6768 23.5428 47.2212 23.7049 47.6891 24.1228C48.157 24.5408 48.3867 25.1379 48.3867 25.9056C48.3867 28.2342 47.6806 30.2814 46.26 32.0897C44.8394 33.8981 43.155 35.007 41.207 35.3652C38.7145 35.8088 36.741 34.8961 35.2863 32.6271C33.9678 30.5885 33.3127 27.893 33.3127 24.5237C33.3127 21.0691 34.0358 17.8448 35.4905 14.9276C37.1238 11.7119 39.2079 9.99736 41.7514 9.83529C43.5889 9.70734 45.0946 10.2788 46.277 11.4901C47.5445 12.7866 48.1825 14.5608 48.1825 16.8468C48.1825 17.8022 47.7742 18.5869 46.9575 19.2096C46.2345 19.7641 45.3157 20.1308 44.2014 20.2929C42.9083 20.4806 41.828 20.3612 40.9688 19.9176C40.7221 19.7982 40.5009 19.747 40.3223 19.7641C40.0075 19.7982 39.7694 20.037 39.6077 20.472C39.5397 20.8047 39.5056 21.1544 39.5056 21.5127C39.5056 22.4936 39.8204 23.4234 40.4414 24.302C41.0624 25.1805 41.7514 25.607 42.5 25.5985C42.7297 25.5644 42.9509 25.5303 43.1805 25.4876V25.4791ZM41.5473 13.8784C40.9773 13.9296 40.4669 14.2026 39.999 14.6888C39.5312 15.175 39.3015 15.7977 39.3015 16.5312C39.3015 17.1198 39.7183 17.3672 40.5605 17.2819C42.0321 17.1283 42.8148 16.9833 42.9083 16.8895C43.1805 16.8298 43.3167 16.5227 43.3167 15.9853C43.3167 15.32 43.138 14.7911 42.7892 14.3988C42.4405 14.0064 42.0236 13.8273 41.5473 13.8699V13.8784Z" fill="#F0E8D7"/>
<path d="M51.1255 14.8253C51.1255 12.9402 51.6955 11.3536 52.8269 10.1253C53.8477 8.9738 55.1322 8.32553 56.6719 8.15493C58.6029 7.94169 60.1767 8.54731 61.4016 9.86091C62.3969 10.876 62.8988 11.7545 62.8988 12.5905C62.8988 13.5714 62.2523 14.1941 60.9593 14.4585C60.3213 14.5865 59.7343 14.1941 59.1899 13.2387C58.6455 12.2834 58.1691 11.8228 57.7608 11.891C57.4885 11.9337 57.2333 12.0872 56.9952 12.3602C56.757 12.6246 56.6379 12.9231 56.6379 13.2558C56.6379 13.9894 57.2504 14.6803 58.4753 15.2774C60.1767 16.0962 61.3251 16.736 61.912 17.2904C63.1625 18.4761 63.7835 20.1309 63.7835 22.3316C63.7835 24.1485 63.0775 25.9056 61.6739 27.6457C60.3553 29.2834 58.8496 30.4094 57.1483 30.9638C52.5206 32.4821 50.2068 30.6567 50.2068 25.4876C50.2068 24.2593 50.5726 23.5599 51.2956 23.3978C51.4998 23.3552 51.7805 23.3808 52.1293 23.4746C52.4781 23.5684 52.7588 23.5855 52.963 23.5428C53.8221 23.3296 54.256 22.724 54.256 21.7089C54.256 21.0095 53.7371 20.0882 52.6908 18.8514C51.6444 17.6146 51.1255 16.2498 51.1255 14.8168V14.8253Z" fill="#F0E8D7"/>
<path d="M66.5912 12.0276C66.5912 10.4411 67.1612 9.08482 68.2926 8.03565C69.3134 7.03765 70.5979 6.47468 72.1376 6.28702C74.0686 6.04819 75.6424 6.47468 76.8673 7.47268C77.8626 8.24037 78.3645 8.92276 78.3645 9.58809C78.3645 10.3728 77.718 10.9017 76.425 11.1746C75.787 11.3111 75.2 11.0211 74.6556 10.2705C74.1112 9.51985 73.6348 9.17012 73.2265 9.24689C72.9543 9.29807 72.699 9.43455 72.4609 9.66485C72.2227 9.89516 72.1036 10.1425 72.1036 10.407C72.1036 11.004 72.7161 11.5414 73.941 11.9679C75.6424 12.548 76.7908 13.0171 77.3777 13.4521C78.6282 14.3733 79.2492 15.7125 79.2492 17.5891C79.2492 19.133 78.5432 20.6769 77.1396 22.2805C75.821 23.7818 74.3153 24.8736 72.614 25.4963C67.9863 27.2193 65.6725 25.829 65.6725 21.274C65.6725 20.1993 66.0383 19.5595 66.7614 19.3463C66.9655 19.2866 67.2462 19.2866 67.595 19.3377C67.9438 19.3889 68.2245 19.3804 68.4287 19.3207C69.2879 19.0648 69.7217 18.5018 69.7217 17.6318C69.7217 17.0347 69.2028 16.2926 68.1565 15.3202C67.1101 14.3478 66.5912 13.2303 66.5912 12.0276Z" fill="#F0E8D7"/>
<path d="M81.2909 8.60705C81.2909 7.68582 82.1841 6.72194 83.979 5.82631C85.5697 5.0245 87.0159 4.598 88.3344 4.46153C88.7683 4.41888 89.1766 4.55535 89.5764 4.87949C89.9762 5.20362 90.1293 5.5107 90.0358 5.80925C90.0358 6.26986 89.9082 6.96078 89.6445 7.93319C89.3808 8.90559 89.2532 9.66475 89.2532 10.1765C89.2532 11.2428 89.687 12.6076 90.5462 14.2453C91.4054 15.883 91.8392 16.7445 91.8392 16.7872C91.8392 17.7084 91.1587 18.5955 89.7976 19.5168C88.7342 20.2077 87.5603 20.7621 86.2928 21.163C84.9573 21.5895 83.7833 21.7686 82.788 21.6919C81.495 21.5895 80.8485 20.9924 80.8485 19.9177C80.8485 19.7812 81.2398 18.7576 82.0224 16.9493C82.8051 15.1495 83.2304 13.5885 83.2984 12.1896C83.324 11.5499 83.2389 10.9528 83.0603 10.3898C82.9497 10.1851 82.7795 9.95477 82.5499 9.69887C82.2521 9.6221 81.9714 9.5368 81.6992 9.43444C81.427 9.33208 81.2909 9.05913 81.2909 8.61557V8.60705ZM89.7976 1.51872C89.7976 2.17552 89.2702 2.78114 88.2068 3.3697C87.2796 3.89855 86.3098 4.23975 85.2975 4.35064C84.4128 4.44447 83.6727 4.3677 83.0603 4.10327C82.3627 3.77914 82.0139 3.26734 82.0139 2.59348C82.0139 1.8855 82.5669 1.24576 83.6727 0.70838C84.6085 0.230707 85.5697 0.0174601 86.5395 0.00040036C87.3562 -0.00812952 88.0622 0.119819 88.6747 0.367185C89.4233 0.640141 89.7891 1.01546 89.7891 1.51872H89.7976Z" fill="#F0E8D7"/>
<path d="M102.591 11.0892C103.11 11.0295 103.706 10.8333 104.378 10.5262C105.05 10.2106 105.551 10.0571 105.892 10.0229C106.53 9.97176 107.074 10.0826 107.542 10.3471C108.01 10.6115 108.24 10.9698 108.24 11.4218C108.24 12.7951 107.534 14.0234 106.113 15.1153C104.692 16.2156 103.008 16.9321 101.06 17.2563C98.6355 17.6657 96.679 17.3245 95.2073 16.1303C93.8717 15.047 93.1997 13.5117 93.1997 11.6095C93.1997 9.47702 93.9398 7.60898 95.4115 6.09066C97.0448 4.41881 99.2225 3.60847 101.945 3.43787C103.399 3.35257 104.658 3.49758 105.722 3.86437C106.921 4.28233 107.525 4.89648 107.525 5.74947C107.525 6.14184 107.389 6.47451 107.117 6.76452C106.776 7.11425 106.309 7.31044 105.722 7.34455C105.22 7.37867 104.633 7.20808 103.952 6.84982C103.272 6.49157 102.668 6.33803 102.149 6.38068C101.358 6.44892 100.694 6.75599 100.158 7.31897C99.6223 7.88194 99.3586 8.45344 99.3586 9.03347C99.3586 9.57938 99.6989 10.0912 100.379 10.5433C101.06 10.9953 101.8 11.1745 102.591 11.0806V11.0892Z" fill="#F0E8D7"/>
<path d="M126.121 15.0214C126.121 16.0706 125.5 16.7189 124.25 16.9918C123.186 17.2477 121.961 17.2307 120.575 16.9918C119.962 16.8895 119.341 16.6592 118.703 16.3094C118.065 15.9597 117.64 15.7891 117.41 15.7635C117.095 15.7294 116.602 15.7635 115.93 15.8574C115.258 15.9597 114.748 16.0109 114.382 15.9938C113.114 15.9341 112.042 15.5332 111.183 14.7741C110.324 14.0149 109.89 13.1704 109.89 12.2322C109.89 10.8503 110.571 9.66466 111.932 8.69226C113.225 7.78809 114.824 7.23365 116.73 7.05452C116.959 7.05452 117.291 7.01187 117.733 6.9351C118.176 6.85833 118.397 6.61097 118.397 6.193C118.397 5.22913 117.963 4.75145 117.104 4.71734C116.585 4.70028 116.134 4.85381 115.76 5.17795C115.386 5.50208 115.028 5.82622 114.688 6.14182C114.169 6.48302 113.506 6.65362 112.714 6.64509C112.281 6.64509 111.94 6.5342 111.677 6.32948C111.413 6.11624 111.285 5.88593 111.285 5.6215C111.285 4.71734 112.162 4.03495 113.905 3.57433C115.267 3.22461 116.823 3.06254 118.567 3.12225C120.838 3.19902 122.336 3.62551 123.059 4.38467C123.51 4.88793 123.739 5.76651 123.739 7.08011V7.42984C123.739 8.57284 123.867 9.50259 124.114 10.1935C124.207 10.4324 124.564 11.2256 125.185 12.7013C125.806 14.1855 126.121 14.9958 126.121 15.0129V15.0214ZM118.227 9.5026C118.227 9.0761 118.15 8.8458 117.989 8.78609C117.963 8.72638 117.887 8.68373 117.75 8.6752C117.181 8.63255 116.738 8.77756 116.423 9.11022C116.109 9.44289 115.947 9.80114 115.947 10.1935C115.947 11.038 116.381 11.4986 117.24 11.5668C117.555 11.5924 117.819 11.3792 118.023 10.9271C118.184 10.6029 118.261 10.3044 118.261 10.0314V9.76702C118.235 9.65613 118.227 9.57083 118.227 9.5026Z" fill="#F0E8D7"/>
<path d="M20.9946 50.4715C20.9266 51.5037 20.6118 52.2031 20.0419 52.5869C19.2507 52.9367 18.4681 53.2608 17.694 53.5508C18.8254 54.0626 19.7101 55.0436 20.3481 56.5022C20.918 57.8243 21.1988 59.3256 21.1988 60.9718C21.1988 63.0275 20.0759 64.5458 17.8301 65.3221C15.7885 66.0044 13.6108 65.8765 11.2969 64.8529C8.00483 63.3858 5.40177 61.2107 3.47075 58.6517C1.15692 55.6065 0 52.2884 0 49.2432C0 47.5458 0.365789 46.3857 1.08886 45.7204C1.87999 45.0209 3.0369 44.9698 4.55961 45.4474C3.74296 43.315 3.33464 41.5834 3.33464 40.2869C3.33464 38.5724 4.0407 37.7279 5.44431 37.5573C6.71181 37.4123 8.23451 37.7876 10.0039 38.6321C11.0502 39.1268 11.986 39.8774 12.8281 40.901C13.7809 42.0184 14.2573 43.1017 14.2573 44.168C14.2573 45.0124 13.8149 45.2768 12.9302 44.9101C12.7941 44.8504 12.5304 44.4836 12.1306 43.7756C11.7308 43.0761 11.2374 42.5899 10.6504 42.3084C10.4207 42.1976 10.174 42.1123 9.90183 42.0525C9.26383 41.882 8.82148 41.8478 8.55777 41.9928C8.29406 42.1293 8.13243 42.5132 8.06438 43.1273C7.97081 44.1765 8.16646 45.2598 8.64284 46.3772C8.82148 46.8037 9.28935 47.6652 10.0379 48.9191C10.5398 49.7721 10.761 50.3948 10.7185 50.7957C10.6504 51.6657 10.3697 52.2031 9.86781 52.3908C9.36591 52.5869 9.08519 52.9196 9.01713 53.4058C8.92356 54.3868 9.17025 55.3677 9.74871 56.306C10.3272 57.2528 11.0928 57.9522 12.0455 58.3873C12.9557 58.7967 13.7639 58.7882 14.4785 58.3617C15.193 57.9352 15.5503 57.2699 15.5503 56.3657C15.5503 55.3762 15.108 54.7194 14.2233 54.3782C13.5682 54.1138 13.1599 54.1564 12.9983 54.5232C12.8367 54.89 12.7176 55.0436 12.624 55.0094C12.2582 54.8474 11.9775 54.455 11.7733 53.8238C11.5947 53.2693 11.5266 52.8173 11.5692 52.459C11.6627 51.2222 12.2497 50.6421 13.3386 50.6677C13.3641 50.6677 14.3253 50.9151 16.2308 51.171C17.2261 51.2904 17.728 50.9577 17.728 50.2071C17.728 49.7636 17.6174 49.3456 17.3878 48.9703C17.09 48.5267 16.7072 48.2794 16.2308 48.2197C16.0267 48.2026 15.746 48.3476 15.3802 48.6376C14.9293 48.2197 14.7081 47.8187 14.7337 47.4434C14.7762 46.889 15.0909 46.4454 15.6694 46.0701C16.2479 45.6948 16.9369 45.6266 17.728 45.8483C18.1363 45.9592 18.5447 46.1554 18.953 46.4284C20.4247 47.3752 21.1052 48.7059 20.9946 50.4715Z" fill="#F0E8D7"/>
<path d="M37.0894 51.5722C37.0894 49.1753 36.7832 47.6911 36.1707 47.222C35.9665 47.1196 35.6858 46.9746 35.32 46.7614C35.0478 46.4884 34.9117 46.079 34.9117 45.5245C34.9117 44.4839 35.4987 43.6565 36.6811 42.9912C37.6594 42.4282 38.8588 42.0443 40.288 41.814C40.5857 41.7629 41.2067 41.6861 42.1594 41.5581C46.5829 40.9525 49.9091 41.1061 52.1293 42.36C54.7834 43.8697 56.1105 47.0002 56.1105 51.7428C56.1105 55.3254 55.2003 58.4388 53.3883 61.066C51.4403 63.8808 48.7011 65.7489 45.1878 66.6019C40.5347 67.6852 39.063 67.8216 40.7643 67.5743C38.5186 67.9666 36.9193 68.0093 35.9665 67.8472C35.1074 67.7107 34.5714 67.5743 34.3673 67.4804C33.959 67.3013 33.7888 66.9857 33.8569 66.5251C33.9675 65.5953 34.2652 64.8618 34.7416 64.35C35.3796 63.6761 35.7964 63.062 36.0006 62.5161C36.7492 60.4348 37.1149 56.9631 37.0894 51.5807V51.5722ZM45.0858 44.7568C44.9752 44.8592 44.822 45.0213 44.6434 45.2345C44.3967 45.4989 44.2096 45.806 44.082 46.1813C43.9544 46.5566 43.8523 46.9746 43.7587 47.4267C43.7587 51.7513 43.7842 54.1994 43.8268 55.1206C43.8693 56.9716 44.4052 57.7393 45.426 57.4749C46.6085 57.1593 47.4761 56.2551 48.0461 54.7624C48.4799 53.6706 48.6926 52.4252 48.6926 51.0178C48.6926 49.2862 48.4799 47.8617 48.0461 46.7699C47.4336 45.1578 46.4468 44.4754 45.0858 44.7483V44.7568Z" fill="#F0E8D7"/>
<path d="M73.9233 52.5018C73.9233 53.8154 73.3024 55.1034 72.0519 56.3402C70.9885 57.415 69.7636 58.2168 68.377 58.7627C67.7645 59.0015 67.1435 59.0868 66.5055 59.0186C65.8675 58.9504 65.4421 58.9589 65.2125 59.0442C64.8977 59.1721 64.4043 59.4621 63.7323 59.9057C63.0602 60.3493 62.5498 60.6393 62.1841 60.7757C60.9166 61.2619 59.8447 61.1852 58.9855 60.5625C58.1263 59.9398 57.6925 59.0186 57.6925 57.7818C57.6925 55.9564 58.373 54.0627 59.7341 52.0753C61.0271 50.2072 62.6264 48.6463 64.5319 47.4009C64.7616 47.2815 65.0934 47.0512 65.5357 46.7014C65.9781 46.3517 66.1992 45.8485 66.1992 45.1831C66.1992 43.6563 65.7654 43.0763 64.9062 43.443C64.3873 43.6648 63.9364 44.134 63.5621 44.859C63.1879 45.5755 62.8306 46.275 62.4903 46.9403C61.9714 47.7336 61.3079 48.288 60.5167 48.6121C60.0829 48.7913 59.7426 48.7571 59.4789 48.5183C59.2152 48.2795 59.0876 47.9468 59.0876 47.5118C59.0876 46.002 59.9638 44.4666 61.7077 42.9227C63.0688 41.7115 64.6255 40.7476 66.3694 40.0055C68.6407 39.0416 70.1379 38.9563 70.8609 39.7581C71.3118 40.287 71.5415 41.5153 71.5415 43.4516C71.5415 43.6222 71.5415 43.7928 71.5415 43.9634C71.5415 45.6267 71.6691 46.8465 71.9158 47.6227C72.0093 47.8786 72.3666 48.7401 72.9876 50.2328C73.6086 51.7255 73.9233 52.4932 73.9233 52.5188V52.5018ZM66.0291 50.2499C66.0291 49.6443 65.9525 49.3372 65.7909 49.3372C65.7654 49.2604 65.6888 49.2434 65.5527 49.3031C64.9828 49.5419 64.5404 49.9855 64.2257 50.6337C63.9109 51.2735 63.7493 51.8706 63.7493 52.4335C63.7493 53.6192 64.1831 54.0286 65.0423 53.6704C65.3571 53.5339 65.6208 53.1074 65.8249 52.3653C65.9866 51.8279 66.0631 51.3673 66.0631 50.9834C66.0631 50.8896 66.0631 50.7702 66.0631 50.6081C66.0376 50.4631 66.0291 50.3437 66.0291 50.2499Z" fill="#F0E8D7"/>
<path d="M77.0797 40.7646C76.6288 40.7305 76.3566 40.6878 76.2631 40.6366C75.9908 40.5087 75.8547 40.2016 75.8547 39.724C75.8547 38.8454 76.5098 37.7365 77.8283 36.4229C79.2574 34.9984 80.5249 34.0772 81.6393 33.6336C82.2773 33.3777 82.5665 33.6336 82.524 34.3928C82.524 34.5037 82.5325 34.6657 82.558 34.8705C82.6261 35.1946 82.7537 35.3225 82.9323 35.2458C83.0004 35.2202 83.0769 35.1519 83.1705 35.0496C83.8255 34.2563 84.4976 33.4716 85.1781 32.6868C85.8331 32.0044 86.7093 31.4585 87.7982 31.0747C89.457 30.4946 90.6309 30.3496 91.337 30.597C91.9239 30.8017 92.2812 31.3732 92.3918 32.3371C92.4173 32.5333 92.4258 33.6336 92.4258 35.7234C92.4258 37.2503 92.8767 39.2804 93.7869 41.9588C94.6971 44.6457 95.148 46.3517 95.148 46.8805C95.148 48.4585 93.4126 49.6613 89.9419 50.7104C88.8785 51.0346 87.9683 51.0687 87.2197 50.7957C86.3095 50.5313 85.8586 49.8574 85.8586 48.7571C85.8586 48.4927 85.9692 48.0491 86.1819 47.4435C86.3946 46.8379 86.5137 46.3858 86.5392 46.0872C86.8795 41.8649 87.0496 39.7837 87.0496 39.6131C87.0496 36.9859 86.4796 35.9282 85.3482 36.3461C84.5741 36.6361 84.0892 37.3612 83.8851 38.5042C83.817 38.9221 83.783 39.7837 83.783 41.1229C83.783 41.9502 83.9276 43.0762 84.2083 44.5092C84.4891 45.9422 84.6337 46.9914 84.6337 47.6141C84.6337 49.2433 84.1743 50.6593 83.2556 51.8364C82.3369 53.0135 81.1204 53.875 79.5977 54.438C78.3727 54.8986 77.488 55.0948 76.9436 55.0266C76.1269 54.9413 75.7186 54.3612 75.7186 53.2609C75.7186 52.7917 76.0334 51.4525 76.6714 49.2433C77.3774 46.7952 77.8028 44.9784 77.9644 43.7927C77.9389 42.7009 77.8368 41.8991 77.6582 41.3873C77.4965 41.2934 77.3094 41.0802 77.0797 40.7475V40.7646Z" fill="#F0E8D7"/>
<path d="M97.2403 33.4888C96.7384 33.3438 96.4832 33.267 96.4576 33.2499C96.1854 33.0964 96.0493 32.7808 96.0493 32.3202C96.0493 31.4501 96.7213 30.4607 98.0569 29.403C99.7582 28.0211 101.451 27.2108 103.127 26.9464C103.807 26.844 104.088 27.2108 103.978 28.0638C103.952 28.2685 103.935 28.4817 103.91 28.6865C103.731 30.0171 103.637 30.7592 103.637 30.8701C103.637 31.9363 103.697 32.6529 103.807 32.977C104.105 33.9835 104.871 34.9645 106.121 35.9966C106.487 35.9624 106.946 35.2118 107.516 33.7959C108.018 32.4823 108.265 31.6207 108.265 31.1772C108.265 30.8445 108.112 30.4436 107.806 30.0086C107.499 29.565 107.346 29.1983 107.346 28.8912C107.346 27.5946 108.435 26.8355 110.613 26.7843C112.493 26.7587 113.437 27.407 113.437 28.6182C113.437 29.1385 113.071 29.7356 112.348 30.4436C111.489 31.254 110.945 31.9961 110.715 32.6102C110.06 35.0242 109.396 37.5575 108.741 40.2018C107.695 44.2108 106.64 47.5119 105.577 49.8576C104.105 53.1416 102.421 54.9841 100.541 55.2741C99.2904 55.4788 98.2866 55.1461 97.5295 54.2846C96.7724 53.4231 96.3896 52.2801 96.3896 50.8385C96.3896 49.9514 96.5852 49.0899 96.968 48.254C97.4019 47.3072 97.9888 46.7527 98.7374 46.5907C99.4435 46.4457 99.9284 46.4883 100.201 46.7186C100.311 46.8295 100.43 47.0598 100.541 47.4351C100.609 47.6825 100.754 47.7849 100.983 47.7422C101.528 47.6484 101.8 47.0683 101.8 46.0021C101.8 44.9529 101.247 42.7096 100.133 39.5621C99.5201 37.8731 98.9076 36.2525 98.2951 34.7C98.159 34.3674 97.9803 34.0688 97.7507 33.8044C97.572 33.6423 97.4019 33.54 97.2403 33.4888Z" fill="#F0E8D7"/>
<path d="M123.713 40.2018C124.079 40.2359 124.573 40.1762 125.211 40.0483C125.781 39.9118 126.231 39.9203 126.572 40.0483C127.21 40.2871 127.754 40.7392 128.222 41.3789C128.69 42.0187 128.92 42.684 128.92 43.3664C128.92 45.4306 128.214 46.8466 126.793 47.7251C125.372 48.6122 123.688 48.817 121.74 48.3734C119.247 47.8104 117.274 46.4201 115.819 44.0573C114.501 41.9589 113.846 39.545 113.846 36.824C113.846 34.0432 114.569 31.7231 116.023 29.8721C117.657 27.8591 119.741 27.1084 122.284 27.7482C124.122 28.2173 125.627 29.1982 126.81 30.6142C128.077 32.1411 128.715 33.847 128.715 35.6554C128.715 36.4145 128.307 36.8069 127.49 36.8666C126.767 36.9178 125.849 36.7387 124.734 36.3719C123.441 35.9454 122.361 35.4506 121.502 34.8194C121.255 34.6403 121.034 34.538 120.855 34.4953C120.54 34.4271 120.302 34.538 120.141 34.828C120.073 35.0668 120.039 35.3312 120.039 35.6127C120.039 36.3804 120.353 37.2249 120.974 38.1546C121.595 39.0844 122.284 39.6985 123.033 40.0056C123.263 40.0653 123.484 40.1336 123.713 40.2018ZM122.08 30.5033C121.51 30.3583 121 30.401 120.532 30.6227C120.064 30.8445 119.834 31.2369 119.834 31.7743C119.834 32.2008 120.251 32.4993 121.093 32.687C122.565 33.0282 123.348 33.2414 123.441 33.1988C123.713 33.2585 123.85 33.0793 123.85 32.6699C123.85 32.1752 123.671 31.7146 123.322 31.3051C122.973 30.8957 122.557 30.6227 122.08 30.5033Z" fill="#F0E8D7"/>
<path d="M131.08 28.9592C131.08 28.0977 131.735 27.6115 133.054 27.5859C134.781 27.5688 136.465 28.1148 138.124 29.2492C138.83 29.7354 139.111 30.3837 138.975 31.1684C138.66 33.1303 138.337 35.1007 138.022 37.0882C138.022 37.2502 138.022 37.4123 138.022 37.5659C138.022 38.9648 138.286 41.191 138.805 44.3045C139.281 47.1449 139.766 49.5674 140.268 51.5378C140.361 51.8449 140.599 52.4164 140.982 53.2608C141.365 54.1053 141.561 54.6683 141.561 54.9497C141.561 57.2272 139.681 56.6642 135.912 54.2929C134.483 53.4058 133.301 52.5273 132.373 51.5634C131.08 50.2668 130.434 48.9618 130.434 47.5629C130.434 47.2387 130.57 46.9572 130.842 46.7184C131.183 46.4199 131.387 46.181 131.455 46.0019C131.838 44.8077 132.22 43.0164 132.595 40.6793C132.969 38.3421 133.156 36.5337 133.156 35.169C133.156 35.1092 133.156 35.0581 133.156 34.9984C133.131 34.9642 133.122 34.9216 133.122 34.8789C133.122 33.0962 132.884 31.8679 132.408 31.194C132.11 30.8528 131.821 30.5202 131.523 30.196C131.225 29.8719 131.08 29.4539 131.08 28.9592Z" fill="#F0E8D7"/>
<path d="M23.7679 79.9083C23.7679 79.0297 23.9381 78.1341 24.2783 77.1958C24.6186 76.266 25.0184 75.5751 25.4693 75.1572C26.1073 74.5515 27.3493 74.3127 29.2122 74.3468C29.5525 74.3468 30.1565 74.3724 31.0157 74.3809C31.8748 74.3895 32.5724 74.3809 33.0913 74.3553C33.2955 74.3468 33.7804 74.3127 34.5375 74.2274C35.2946 74.1506 35.9155 74.0824 36.3919 74.0312C39.0035 73.7668 40.3305 73.9033 40.3731 74.6368C40.4156 75.268 40.1604 75.8651 39.5905 76.411C39.0205 76.957 38.3059 77.264 37.4468 77.3493C36.7662 77.4176 35.9836 77.4005 35.0989 77.2982C34.1206 77.1702 33.0913 77.0934 32.0024 77.0593C31.458 77.0593 30.9391 77.264 30.4542 77.6735C29.9693 78.0829 29.7226 78.4667 29.7226 78.8591C29.7226 79.3965 30.6159 79.8059 32.4108 80.0192C34.9543 80.3007 36.6216 80.4883 37.4127 80.7528C39.2076 81.2816 40.1009 82.3393 40.1009 83.8235C40.1009 85.5807 39.1651 86.9625 37.2936 87.9349C35.4222 88.9073 33.0658 89.2826 30.2331 89.257C28.6423 89.2315 27.0771 89.0609 25.5373 88.7111C23.5893 88.2846 22.611 87.6875 22.611 86.9454C22.611 86.8857 22.5855 86.6895 22.543 86.3569C22.5004 86.0242 22.4749 85.7427 22.4749 85.5039C22.4749 84.395 22.8747 83.8235 23.6659 83.8832C23.9806 83.9003 24.6101 84.0368 25.5373 84.2671C26.4646 84.4974 27.0771 84.5997 27.3748 84.6083C27.9447 84.6253 28.4977 84.4803 29.0421 84.1732C29.5865 83.8662 29.8588 83.5506 29.8588 83.2179C29.8588 82.4843 29.3228 82.0237 28.2595 81.8616C27.2812 81.7678 26.3114 81.6569 25.3332 81.5204C24.2868 81.2987 23.7679 80.7613 23.7679 79.8998V79.9083Z" fill="#F0E8D7"/>
<path d="M59.811 80.3689C59.811 83.0132 59.0539 85.2224 57.5312 86.826C55.8554 88.6258 53.516 89.3423 50.5217 89.3082C48.0037 89.2741 45.9365 88.4894 44.3288 87.0222C42.9422 85.7342 42.2531 84.3097 42.2531 82.5611C42.2531 80.6589 42.9422 78.6971 44.3288 76.5731C45.962 74.0312 48.1057 72.2911 50.7598 71.6087C53.3714 70.9349 55.5917 71.6087 57.4291 73.8094C59.0199 75.7201 59.811 77.9635 59.811 80.3604V80.3689ZM53.0056 79.3027C53.0056 78.3473 52.8695 77.4091 52.5973 76.5049C52.1635 75.1913 51.551 74.6283 50.7598 74.8074C50.1218 74.9524 49.6455 75.4216 49.3307 76.1978C49.101 76.7437 48.9904 77.3152 48.9904 77.9208C48.9904 78.7994 49.1266 79.5756 49.3988 80.2751C49.8071 81.2646 50.4281 81.6996 51.2702 81.5802C52.4272 81.4181 53.0056 80.676 53.0056 79.3112V79.3027Z" fill="#F0E8D7"/>
<path d="M80.5249 76.3941C80.5249 77.1618 79.6487 77.6821 77.9048 77.9721C77.1987 78.0915 76.5012 78.2024 75.7951 78.3218C75.0465 78.4498 74.5616 78.5521 74.332 78.6374C73.8301 78.8422 73.5834 79.1748 73.5834 79.6269V85.0263C73.5834 85.8025 72.8688 86.2205 71.4397 86.2973C70.0105 86.3655 69.296 86.0499 69.296 85.3334V80.3008C69.296 79.8743 69.0493 79.644 68.5474 79.6184C68.3177 79.6184 67.8328 79.6781 67.0842 79.7975C66.3782 79.9169 65.6806 80.0363 64.9746 80.1558C63.2307 80.4458 62.3545 80.3008 62.3545 79.7207C62.3545 79.1151 62.4481 78.4924 62.6267 77.8442C62.8309 77.0935 63.1031 76.667 63.4434 76.5903C65.1022 76.215 66.7525 75.8396 68.4113 75.4558C68.8451 75.3534 69.1173 75.0378 69.2279 74.4919C69.2705 74.2616 69.296 73.7669 69.296 73.0248V70.8667C69.296 69.1181 69.6277 68.1372 70.2828 67.9239C72.1457 67.3353 73.158 67.0539 73.3282 67.0709C73.4983 67.088 73.5834 68.7598 73.5834 72.1206V73.7925C73.5834 74.1934 74.2044 74.2531 75.4549 73.9716C75.8632 73.8778 76.4076 73.7328 77.0881 73.528C77.7687 73.3233 78.1685 73.2124 78.2791 73.1868C78.866 73.0589 79.4615 72.9224 80.0485 72.7945C80.3632 72.7262 80.5504 73.1357 80.5929 74.0484C80.5504 73.3063 80.5249 74.074 80.5249 76.3856V76.3941Z" fill="#F0E8D7"/>
<path d="M82.7024 70.5338C82.7024 69.0155 82.8725 67.4375 83.2128 65.7912C83.5531 64.145 83.9529 62.9167 84.4037 62.0893C85.0417 60.9036 86.2837 60.025 88.1467 59.5047C88.487 59.4109 89.0909 59.2659 89.9501 59.0782C90.8093 58.8906 91.5069 58.737 92.0258 58.6091C92.2299 58.5579 92.7148 58.4214 93.4719 58.1996C94.229 57.9864 94.85 57.8243 95.3264 57.722C97.9379 57.1675 99.265 57.5428 99.3075 58.7114C99.3501 59.7435 99.0949 60.7245 98.5249 61.6286C97.955 62.5328 97.2404 63.0617 96.3812 63.2067C95.7007 63.3261 94.9181 63.3261 94.0334 63.2237C93.0551 63.0787 92.0258 63.0787 90.9369 63.2237C90.3925 63.3176 89.8736 63.7782 89.3887 64.58C88.9038 65.3903 88.6571 66.1324 88.6571 66.8148C88.6571 67.7787 89.5503 68.2905 91.3452 68.4355C93.8887 68.6146 95.5561 69.024 96.3472 69.5358C98.1421 70.6191 99.0353 72.8113 99.0353 76.0953C99.0353 80.0105 98.0996 83.431 96.2281 86.1009C94.3566 88.7792 92.0002 90.0417 89.1675 89.999C87.5767 89.982 86.0115 89.4958 84.4718 88.6428C82.5237 87.6106 81.5455 86.3312 81.5455 84.6764C81.5455 84.5399 81.52 84.1134 81.4774 83.3969C81.4349 82.6804 81.4094 82.0833 81.4094 81.6056C81.4094 79.3025 81.8092 78.1084 82.6003 77.9804C82.9151 77.9378 83.5446 78.0316 84.4718 78.2875C85.399 78.5519 86.0115 78.6713 86.3092 78.6372C86.8792 78.569 87.4321 78.1595 87.9766 77.4004C88.521 76.6412 88.7932 75.9162 88.7932 75.2253C88.7932 73.6814 88.2573 72.8625 87.1939 72.7772C86.2157 72.8113 85.2459 72.854 84.2676 72.9137C83.2213 72.8198 82.7024 72.0266 82.7024 70.5338Z" fill="#F0E8D7"/>
<path d="M118.746 73.9288C118.746 78.2791 117.989 81.9384 116.466 84.8556C114.79 88.114 112.451 89.82 109.456 89.7774C106.938 89.7518 104.871 87.7131 103.264 83.96C101.877 80.7101 101.188 77.2726 101.188 73.5876C101.188 69.5957 101.877 65.9278 103.264 62.5159C104.897 58.4471 107.04 56.3658 109.695 56.2976C112.306 56.2379 114.526 58.2851 116.364 62.5073C117.955 66.1922 118.746 70.0051 118.746 73.9288ZM111.94 69.698C111.94 68.0006 111.804 66.3458 111.532 64.7336C111.098 62.3965 110.486 61.262 109.695 61.279C109.057 61.2961 108.58 61.9017 108.265 63.1044C108.036 63.9489 107.925 64.9042 107.925 65.979C107.925 67.5314 108.061 69.0071 108.334 70.3804C108.742 72.3508 109.363 73.3573 110.205 73.3573C111.362 73.3573 111.94 72.1205 111.94 69.698Z" fill="#F0E8D7"/>
</g>
<defs>
<filter id="filter0_b_29_71" x="-2.74875" y="-2.74875" width="147.058" height="95.4976" filterUnits="userSpaceOnUse" color-interpolation-filters="sRGB">
<feFlood flood-opacity="0" result="BackgroundImageFix"/>
<feGaussianBlur in="BackgroundImageFix" stdDeviation="1.37437"/>
<feComposite in2="SourceAlpha" operator="in" result="effect1_backgroundBlur_29_71"/>
<feBlend mode="normal" in="SourceGraphic" in2="effect1_backgroundBlur_29_71" result="shape"/>
</filter>
</defs>
</svg>
