<?xml version="1.0" encoding="UTF-8"?>
<svg xmlns="http://www.w3.org/2000/svg" xmlns:xlink="http://www.w3.org/1999/xlink" width="45px" height="48px" viewBox="0 0 45 48" version="1.1">
<g id="surface1">
<path style=" stroke:none;fill-rule:nonzero;fill:rgb(0%,0%,0%);fill-opacity:1;" d="M 22.5 2.101562 C 10.300781 2.101562 0.5 12 0.5 24.101562 C 0.5 35.101562 8.5 44.199219 19.101562 45.800781 L 19.101562 30.5 L 13.5 30.5 L 13.5 24.101562 L 19.101562 24.101562 L 19.101562 19.199219 C 19.101562 13.699219 22.398438 10.601562 27.398438 10.601562 C 29.800781 10.601562 32.300781 11 32.300781 11 L 32.300781 16.398438 L 29.5 16.398438 C 26.800781 16.398438 25.898438 18.101562 25.898438 19.800781 L 25.898438 23.898438 L 32 23.898438 L 31 30.300781 L 25.898438 30.300781 L 25.898438 45.699219 C 36.398438 44 44.5 34.898438 44.5 24 C 44.5 12 34.699219 2.101562 22.5 2.101562 Z M 22.5 2.101562 "/>
</g>
</svg>
