<?xml version="1.0" encoding="UTF-8"?>
<svg xmlns="http://www.w3.org/2000/svg" xmlns:xlink="http://www.w3.org/1999/xlink" width="45px" height="48px" viewBox="0 0 45 48" version="1.1">
<g id="surface1">
<path style=" stroke:none;fill-rule:nonzero;fill:rgb(0%,0%,0%);fill-opacity:1;" d="M 13.601562 2.601562 C 11.300781 2.699219 9.699219 3.101562 8.398438 3.601562 C 6.898438 4.199219 5.699219 4.898438 4.601562 6.101562 C 3.398438 7.300781 2.601562 8.5 2.101562 9.898438 C 1.601562 11.300781 1.199219 12.800781 1.101562 15.101562 C 1 17.5 1 18.199219 1 24 C 1 29.800781 1 30.601562 1.101562 32.898438 C 1.199219 35.199219 1.601562 36.800781 2.101562 38.101562 C 2.699219 39.5 3.398438 40.699219 4.601562 41.898438 C 5.800781 43.101562 7 43.800781 8.398438 44.398438 C 9.800781 44.898438 11.300781 45.300781 13.601562 45.398438 C 15.898438 45.5 16.601562 45.5 22.5 45.5 C 28.300781 45.5 29.101562 45.5 31.398438 45.398438 C 33.699219 45.300781 35.300781 44.898438 36.601562 44.398438 C 38 43.800781 39.199219 43.101562 40.398438 41.898438 C 41.601562 40.699219 42.300781 39.5 42.898438 38.101562 C 43.398438 36.699219 43.800781 35.199219 43.898438 32.898438 C 44 30.601562 44 29.898438 44 24 C 44 18.199219 44 17.398438 43.898438 15.101562 C 43.800781 12.800781 43.398438 11.199219 42.898438 9.898438 C 42.300781 8.5 41.601562 7.300781 40.398438 6.101562 C 39.199219 4.898438 38 4.199219 36.601562 3.601562 C 35.199219 3.101562 33.699219 2.699219 31.398438 2.601562 C 29.101562 2.5 28.398438 2.5 22.5 2.5 C 16.601562 2.5 15.898438 2.5 13.601562 2.601562 M 13.800781 41.5 C 11.699219 41.398438 10.601562 41.101562 9.800781 40.800781 C 8.800781 40.398438 8.101562 39.898438 7.300781 39.199219 C 6.5 38.398438 6.101562 37.699219 5.699219 36.699219 C 5.398438 35.898438 5 34.800781 5 32.699219 C 4.898438 30.398438 4.898438 29.800781 4.898438 24 C 4.898438 18.300781 4.898438 17.601562 5 15.300781 C 5.101562 13.199219 5.398438 12.101562 5.699219 11.300781 C 6.101562 10.300781 6.601562 9.601562 7.300781 8.800781 C 8.101562 8 8.800781 7.601562 9.800781 7.199219 C 10.601562 6.898438 11.699219 6.601562 13.800781 6.5 C 16.101562 6.398438 16.800781 6.398438 22.5 6.398438 C 28.199219 6.398438 28.898438 6.398438 31.199219 6.5 C 33.300781 6.601562 34.398438 6.898438 35.199219 7.199219 C 36.199219 7.601562 36.898438 8.101562 37.699219 8.800781 C 38.5 9.601562 38.898438 10.300781 39.300781 11.300781 C 39.601562 12.101562 39.898438 13.199219 40 15.300781 C 40.101562 17.601562 40.101562 18.300781 40.101562 24 C 40.101562 29.699219 40.101562 30.398438 40 32.699219 C 39.898438 34.800781 39.601562 35.898438 39.300781 36.699219 C 38.898438 37.699219 38.398438 38.398438 37.699219 39.199219 C 36.898438 40 36.199219 40.398438 35.199219 40.800781 C 34.398438 41.101562 33.300781 41.398438 31.199219 41.5 C 28.898438 41.601562 28.199219 41.601562 22.5 41.601562 C 16.800781 41.699219 16.101562 41.601562 13.800781 41.5 M 31.398438 12.5 C 31.398438 13.898438 32.601562 15.101562 34 15.101562 C 35.398438 15.101562 36.601562 13.898438 36.601562 12.5 C 36.601562 11.101562 35.398438 9.898438 34 9.898438 C 32.601562 9.898438 31.398438 11.101562 31.398438 12.5 M 11.398438 24 C 11.398438 30.101562 16.398438 35 22.5 35 C 28.601562 35 33.5 30 33.5 23.898438 C 33.5 17.800781 28.5 12.898438 22.398438 12.898438 C 16.398438 13 11.398438 17.898438 11.398438 24 M 15.300781 24 C 15.300781 20 18.5 16.800781 22.5 16.800781 C 26.5 16.800781 29.699219 20 29.699219 24 C 29.699219 28 26.5 31.199219 22.5 31.199219 C 18.601562 31.199219 15.300781 28 15.300781 24 "/>
</g>
</svg>
