<svg width="32" height="32" viewBox="0 0 32 32" fill="none" xmlns="http://www.w3.org/2000/svg">
<path fill-rule="evenodd" clip-rule="evenodd" d="M16 5.08585e-07C7.16345 -2.63931e-07 4.07863e-06 7.16344 3.30611e-06 16C2.5336e-06 24.8366 7.16345 32 16 32C24.8366 32 32 24.8366 32 16C32 7.16345 24.8366 1.2811e-06 16 5.08585e-07ZM16.0247 14.8609C15.37 14.8609 14.8393 15.3917 14.8393 16.0463C14.8393 16.701 15.37 17.2317 16.0247 17.2317C16.6793 17.2317 17.2101 16.701 17.2101 16.0463C17.2101 15.3917 16.6793 14.8609 16.0247 14.8609Z" fill="#EA4D22"/>
<path fill-rule="evenodd" clip-rule="evenodd" d="M15.9831 20.3067C18.3405 20.3067 20.2515 18.3956 20.2515 16.0382C20.2515 13.6808 18.3405 11.7698 15.9831 11.7698C13.6257 11.7698 11.7146 13.6808 11.7146 16.0382C11.7146 18.3956 13.6257 20.3067 15.9831 20.3067ZM15.983 16.6558C16.324 16.6558 16.6005 16.3794 16.6005 16.0383C16.6005 15.6973 16.324 15.4209 15.983 15.4209C15.642 15.4209 15.3656 15.6973 15.3656 16.0383C15.3656 16.3794 15.642 16.6558 15.983 16.6558Z" fill="#FF9A23"/>
</svg>
