<?xml version="1.0" encoding="UTF-8"?>
<svg xmlns="http://www.w3.org/2000/svg" xmlns:xlink="http://www.w3.org/1999/xlink" width="45px" height="48px" viewBox="0 0 45 48" version="1.1">
<g id="surface1">
<path style=" stroke:none;fill-rule:nonzero;fill:rgb(0%,0%,0%);fill-opacity:1;" d="M 22.5 3.101562 C 28.5 3.101562 34.398438 3.101562 40.398438 3.101562 C 42 3.101562 43.300781 4.199219 43.5 5.601562 C 43.5 5.800781 43.5 5.898438 43.5 6.101562 C 43.5 18.101562 43.5 30.101562 43.5 42 C 43.5 43.601562 42.199219 44.898438 40.699219 45 C 40.601562 45 40.5 45 40.398438 45 C 28.5 45 16.601562 45 4.800781 45 C 3.300781 45 2.199219 44.199219 1.800781 42.898438 C 1.699219 42.601562 1.699219 42.300781 1.699219 42 C 1.699219 30.101562 1.699219 18.101562 1.699219 6.199219 C 1.699219 4.5 3 3.199219 4.699219 3.199219 C 6.101562 3.199219 7.601562 3.199219 9 3.199219 C 13.398438 3.101562 17.898438 3.101562 22.5 3.101562 Z M 23.898438 21.300781 C 23.898438 20.601562 23.898438 19.898438 23.898438 19.101562 C 23.898438 18.699219 23.800781 18.601562 23.398438 18.601562 C 21.699219 18.601562 20 18.601562 18.300781 18.601562 C 17.800781 18.601562 17.800781 18.601562 17.800781 19.101562 C 17.800781 25.5 17.800781 31.800781 17.800781 38.199219 C 17.800781 38.601562 17.898438 38.699219 18.300781 38.699219 C 20.101562 38.699219 21.800781 38.699219 23.601562 38.699219 C 24.101562 38.699219 24.101562 38.699219 24.101562 38.199219 C 24.101562 35 24.101562 31.800781 24.101562 28.601562 C 24.101562 27.898438 24.101562 27.300781 24.300781 26.601562 C 24.5 25.199219 25.199219 24.101562 26.601562 23.800781 C 27 23.699219 27.5 23.699219 28 23.699219 C 29.5 23.699219 30.398438 24.398438 30.800781 25.898438 C 31 26.699219 31.101562 27.5 31.101562 28.398438 C 31.101562 31.699219 31.101562 35 31.101562 38.300781 C 31.101562 38.699219 31.199219 38.800781 31.601562 38.800781 C 33.398438 38.800781 35.101562 38.800781 36.898438 38.800781 C 37.300781 38.800781 37.398438 38.699219 37.398438 38.300781 C 37.398438 34.5 37.398438 30.699219 37.398438 26.800781 C 37.398438 25.5 37.199219 24.199219 36.898438 23 C 36.398438 20.800781 35.101562 19.199219 32.800781 18.5 C 32 18.300781 31.199219 18.199219 30.398438 18.101562 C 29 17.898438 27.699219 18.199219 26.5 18.898438 C 25.398438 19.601562 24.601562 20.398438 23.898438 21.300781 Z M 7.699219 28.800781 C 7.699219 32 7.699219 35.199219 7.699219 38.398438 C 7.699219 38.699219 7.800781 38.898438 8.101562 38.898438 C 9.898438 38.898438 11.800781 38.898438 13.601562 38.898438 C 13.898438 38.898438 14 38.800781 14 38.5 C 14 32.101562 14 25.699219 14 19.199219 C 14 18.800781 13.898438 18.800781 13.5 18.800781 C 11.699219 18.800781 9.898438 18.800781 8.101562 18.800781 C 7.699219 18.800781 7.601562 18.898438 7.601562 19.300781 C 7.699219 22.398438 7.699219 25.601562 7.699219 28.800781 Z M 10.800781 16 C 12.800781 16 14.398438 14.398438 14.398438 12.398438 C 14.398438 10.398438 12.800781 8.699219 10.800781 8.699219 C 8.800781 8.699219 7.199219 10.300781 7.199219 12.398438 C 7.199219 14.398438 8.800781 16 10.800781 16 Z M 10.800781 16 "/>
</g>
</svg>
