<svg xmlns="http://www.w3.org/2000/svg" viewBox="0 0 140.1 54.68"><defs><style>.cls-1{fill:#2245c7;}</style></defs><title>Asset 15</title><g id="Layer_2" data-name="Layer 2"><g id="Layer_1-2" data-name="Layer 1"><polygon class="cls-1" points="24.15 24.83 24.15 2.14 13.72 24.83 12.57 24.83 2.13 2.14 2.13 24.83 1.05 24.83 1.05 0.51 2.58 0.51 13.17 23.55 23.73 0.51 25.24 0.51 25.24 24.83 24.15 24.83"/><path class="cls-1" d="M39.54,1.6,33.2,16H45.87ZM49.75,24.83l-3.43-7.78H32.75l-3.42,7.78H28.18L39,.42h1.22L51,24.83Z"/><path class="cls-1" d="M64.11,1.57H54.67V12.35H64c3.9,0,6.2-1.79,6.2-5.47s-2-5.31-6-5.31M71,24.83,62.51,13.41H54.67V24.83H53.58V.51H64c4.74,0,7.3,2.08,7.3,6.37,0,4-2.5,6.46-7.49,6.53L72.4,24.83Z"/><polygon class="cls-1" points="93.67 24.83 82.38 11.01 76.72 16.25 76.72 24.83 75.63 24.83 75.63 0.48 76.72 0.48 76.72 14.88 92.23 0.48 93.74 0.51 83.18 10.27 95.08 24.83 93.67 24.83"/><path class="cls-1" d="M104.61,25.34c-6.27,0-9.47-3.1-9.53-9.92h1.09c.1,5.73,2.33,8.86,8.51,8.86,4.61,0,7.65-2.14,7.65-5.44,0-8.47-16.48-3.1-16.48-12.54,0-3.9,2.94-6.3,8.44-6.3s8.07,2.82,8.67,7.68h-1.08c-.58-4.58-3.11-6.62-7.55-6.62C99.08,1.06,97,3.23,97,6.27c0,8.35,16.44,2.91,16.44,12.61,0,4-3.8,6.46-8.8,6.46"/><path class="cls-1" d="M128.8,1c-2.75,0-4.51,1.86-4.51,4,0,1.31,1.09,3.19,3.2,5.82,3-1.67,5.76-3.26,5.76-6,0-2.15-1.66-3.91-4.45-3.91M127.2,12.1c-2.94,1.69-5.66,3.51-5.66,6.62,0,3.49,3.2,5.57,6.37,5.57a8.57,8.57,0,0,0,6.84-3.65c-3.13-3.46-5.66-6.24-7.55-8.54m11.33,12.73c-1.09-1.22-2.11-2.34-3.1-3.42a9.6,9.6,0,0,1-7.55,3.93c-3.71,0-7.43-2.4-7.43-6.62,0-3.55,3-5.54,6.18-7.33-2.24-2.78-3.43-4.8-3.43-6.27,0-3,2.44-5.12,5.57-5.12,3.58,0,5.57,2.21,5.57,4.86,0,3.17-3.1,4.93-6.24,6.72,1.82,2.21,4.22,4.9,7.23,8.19a9.07,9.07,0,0,0,1.25-4.35h1a10.45,10.45,0,0,1-1.6,5.12c1.22,1.34,2.53,2.75,3.91,4.29Z"/><path class="cls-1" d="M9.47,54.68C3.2,54.68.06,51.58,0,44.76H1.09c.09,5.73,2.27,8.87,8.44,8.87,4.61,0,7.59-2.15,7.59-5.44C17.12,39.71.77,45.08.77,35.65c0-3.91,2.88-6.31,8.38-6.31s8,2.82,8.61,7.68H16.67c-.58-4.57-3-6.62-7.49-6.62-5.25,0-7.29,2.17-7.29,5.21,0,8.36,16.32,2.92,16.32,12.61,0,4-3.75,6.46-8.74,6.46"/><path class="cls-1" d="M30.07,30.91H22.24V41.85h7.67c3.94,0,6.47-1.92,6.47-5.53s-2.21-5.41-6.31-5.41m-.48,12H22.24V54.17H21.15V29.86H30c4.73,0,7.55,2.17,7.55,6.46,0,4-2.82,6.59-7.91,6.59"/><polygon class="cls-1" points="39.96 54.17 39.96 29.85 55.41 29.85 55.41 30.91 41.05 30.91 41.05 41.24 54.52 41.24 54.52 42.3 41.05 42.3 41.05 53.12 55.54 53.12 55.54 54.17 39.96 54.17"/><polygon class="cls-1" points="75.47 54.17 59.29 31.3 59.29 54.17 58.2 54.17 58.2 29.85 59.51 29.85 75.7 52.73 75.7 29.85 76.79 29.85 76.79 54.17 75.47 54.17"/><path class="cls-1" d="M90.35,54.68c-6.49,0-10.65-5.08-10.65-12.47,0-6.47,3.13-12.87,11.07-12.87,5.25,0,8.9,3.14,9.66,8.19H99.28a8.17,8.17,0,0,0-8.51-7.13c-8.32,0-10,7.71-10,11.81,0,5.72,2.94,11.42,9.56,11.42,5.89,0,9-3.9,9.44-9.35h1.15c-.44,5.67-3.8,10.4-10.59,10.4"/><polygon class="cls-1" points="103.73 54.17 103.73 29.85 119.18 29.85 119.18 30.91 104.81 30.91 104.81 41.24 118.28 41.24 118.28 42.3 104.81 42.3 104.81 53.12 119.31 53.12 119.31 54.17 103.73 54.17"/><path class="cls-1" d="M131.82,30.91h-8.64V41.25h8.48c3.9,0,6.2-1.51,6.2-5.19s-2-5.15-6-5.15m6.91,23.26L129.87,42.3h-6.69V54.17h-1.09V29.85h9.6c4.74,0,7.3,1.93,7.3,6.21,0,4-2.56,6.24-7.65,6.24h-.19l8.95,11.87Z"/></g></g></svg>