<?xml version="1.0" encoding="utf-8"?>
<!-- Generator: Adobe Illustrator 22.1.0, SVG Export Plug-In . SVG Version: 6.00 Build 0)  -->
<svg version="1.1" id="Lager_1" xmlns="http://www.w3.org/2000/svg" xmlns:xlink="http://www.w3.org/1999/xlink" x="0px" y="0px"
	 viewBox="0 0 78.8 81.2" style="enable-background:new 0 0 78.8 81.2;" xml:space="preserve">
<style type="text/css">
	.st0{fill:#F5F2E9;}
	.st1{fill:#006EBF;}
	.st2{opacity:0.6;fill:#FFFFFF;}
	.st3{fill:#FFFFFF;}
	.st4{fill:#0045C7;}
</style>
<g>
	<g>
		<path class="st1" d="M52.8,0.1c-1.5-0.4-2.3,0.4-2.6,0.8L29.7,29l-4.3-3.7c-0.9-0.7-2-1.1-3.2-1c-1.1,0.1-2.2,0.7-2.9,1.7
			l-4.4,6.1c-0.7,0.9-0.9,2.1-0.7,3.3c0.2,1.1,0.9,2.1,1.9,2.7l4.8,3L0.4,69.3c-0.3,0.5-0.8,1.4,0,2.7c0.4,0.7,1.1,1.4,2.1,2.1
			c2.3,1.7,10.6,5.8,11.8,4.2L28.5,59l0-0.3c-0.1-2.1,0.5-4.2,1.7-5.9l2.9-4l14.6,9l3.9,19.9c0.3,1.8,1.7,3.1,3.4,3.5
			s3.5-0.3,4.6-1.7l5.3-7.3c0.7-1,1-2.2,0.7-3.4l-0.8-3.7l6.3,4.5c0.4,0.3,1,0.2,1.3-0.2c0.3-0.4,0.2-1-0.2-1.3l-6.3-4.5l3.8-0.3
			c1.2-0.1,2.3-0.7,3-1.7l5.3-7.3c1.1-1.5,1.2-3.3,0.2-4.9c-0.9-1.6-2.6-2.4-4.4-2.2l-20.1,2.5l-13-11.1l3.2-4.4
			c1.2-1.7,3.1-2.9,5.1-3.5l0.3-0.1l13.8-19c1.3-1.7-5.2-8.3-7.5-10C54.5,0.7,53.6,0.3,52.8,0.1z M17.1,36.6c-0.5-0.3-0.9-0.9-1-1.5
			c-0.1-0.6,0-1.3,0.4-1.8l4.4-6.1c0.4-0.5,0.9-0.8,1.6-0.9c0.6-0.1,1.3,0.1,1.7,0.5l4.4,3.8L22,39.6L17.1,36.6z M58.3,60.3l4.1,3
			l1.3,5.8c0.1,0.7,0,1.3-0.4,1.9L58,78.2c-0.7,1-1.9,1.2-2.7,1c-0.8-0.2-1.7-0.8-2-2L49.9,59l0,0l1.4,0.9c1.8,1.1,4.2,0.9,5.7-0.6
			L58.3,60.3z M74,48.9c1.2-0.2,2.1,0.5,2.5,1.3c0.4,0.7,0.6,1.8-0.1,2.8l-5.3,7.3c-0.4,0.5-1,0.9-1.7,0.9l-5.9,0.5l-4.1-3l-1.3-0.9
			c0.9-1.9,0.4-4.2-1.2-5.6l-1.3-1.1L74,48.9z M55.6,53.6c1.1,1,1.3,2.7,0.5,3.9c-0.9,1.2-2.6,1.5-3.8,0.8l-18-11.1l5.3-7.3
			L55.6,53.6z M61.3,10.6L48.1,28.8c-2.3,0.7-4.4,2.1-5.8,4.1L28.6,51.6c-1.4,2-2.2,4.4-2.1,6.8L13.1,76.9C11.3,76.6,3.3,73.4,2,71
			c-0.2-0.3-0.1-0.5-0.1-0.5L51.7,2.1c0.1-0.1,0.2-0.2,0.6-0.1C55,2.5,60.5,8.9,61.3,10.6z"/>
		<path class="st1" d="M8.7,38.4l14.7-20.2c0.3-0.4,0.2-1-0.2-1.3c-0.4-0.3-1-0.2-1.3,0.2L7.1,37.3c-0.3,0.4-0.2,1,0.2,1.3
			S8.3,38.8,8.7,38.4z"/>
	</g>
</g>
</svg>
