<svg xmlns="http://www.w3.org/2000/svg" viewBox="0 0 186.95 36.43"><defs><style>.cls-1{fill:#2245c7;}</style></defs><title>Asset 6</title><g id="Layer_2" data-name="Layer 2"><g id="Layer_1-2" data-name="Layer 1"><path class="cls-1" d="M148.24,36.43c-.62-.25-.71-.39-.71-1.08V8.87a.74.74,0,0,1,.81-.78h4.46a.75.75,0,0,1,.81.81v1.2c0,.59.36.8.86.51l3.76-2.17a2.41,2.41,0,0,1,1.31-.35h6.22A2.06,2.06,0,0,1,167.7,9.2c.78,1.37,1.57,2.72,2.35,4.08a.67.67,0,0,0,.23.25V8.94a.74.74,0,0,1,.85-.85h11.14a2,2,0,0,1,1.78,1l2.58,4.48a2.27,2.27,0,0,1,.32,1.2V35.35c0,.71-.09.84-.71,1.08h-4.62c-.65-.23-.74-.36-.74-1.08V15.13c0-.71-.26-1-1-1h-9.62V35.34c0,.7-.1.85-.74,1.09h-4.62c-.63-.24-.73-.39-.73-1.1V15.14c0-.72-.25-1-.95-1h-8.68c-.71,0-1,.25-1,1,0,6.74,0,13.47,0,20.2a1,1,0,0,1-.7,1.1Z"/><path class="cls-1" d="M43.42,36.43c-.17,0-.34-.07-.5-.12A1.89,1.89,0,0,1,41.58,35c-.61-2.2-1.21-4.41-1.78-6.62a2,2,0,0,1,1-2.27L58.43,15.92l1.25-.73c.26-.14.48-.29.42-.64s-.27-.38-.71-.38H44.48V8.09H65.31a2,2,0,0,1,1.86,1.08c1.44,2.47,2.86,4.95,4.29,7.43a2.45,2.45,0,0,1,.3,1.3V35.35c0,.71-.1.85-.75,1.08H66.39c-.63-.25-.71-.38-.71-1.08,0-.32,0-.65,0-1,0-.58-.36-.79-.87-.5L62,35.47a6.21,6.21,0,0,1-2,1Zm12.8-6.11h8.43c.79,0,1-.24,1-1V20c0-.29.07-.61-.25-.8s-.57,0-.82.18L49.49,28.1l-2.18,1.26a.48.48,0,0,0-.28.56.5.5,0,0,0,.51.4h8.68Z"/><path class="cls-1" d="M75.51,36.43c-.64-.23-.74-.39-.74-1.09q0-10.38,0-20.75A2.29,2.29,0,0,1,76,12.41c2.31-1.31,4.6-2.65,6.9-4a2.41,2.41,0,0,1,1.28-.34H99V.89c0-.61.28-.89.88-.89h4.9l.27,0c0,.11,0,.22,0,.33V35.48c0,.57-.11.72-.71,1H99.77c-.65-.23-.74-.36-.74-1.08v-1c0-.58-.37-.79-.87-.5-.79.45-1.57.93-2.37,1.36a7.66,7.66,0,0,1-2.49,1.2ZM99,20.31V11.16c0-.62-.36-.83-.9-.51-1.8,1-3.61,2.07-5.4,3.12a2.8,2.8,0,0,1-1.49.4H81.82c-.72,0-1,.24-1,.95V29.34c0,.72.26,1,1,1H98c.73,0,1-.26,1-1Z"/><path class="cls-1" d="M0,30.83a1,1,0,0,1,1-.52c6.28,0,12.56,0,18.84,0h.25a.53.53,0,0,0,.57-.38.52.52,0,0,0-.31-.6l-3.59-2.07L1.49,18.44a2,2,0,0,1-1-2.52q.83-3.13,1.67-6.26A2,2,0,0,1,4.16,8.09H28.28v6.08H8.16a.47.47,0,0,0-.53.37.48.48,0,0,0,.28.58l4.37,2.52,14.59,8.43a2,2,0,0,1,1,2.41c-.56,2.1-1.13,4.19-1.69,6.29a2,2,0,0,1-1.83,1.61l-.1,0H.74A1.1,1.1,0,0,1,0,35.88Z"/><path class="cls-1" d="M121.82,36.43l-.35-.08a2,2,0,0,1-1.3-.91c-.91-1.56-1.82-3.12-2.7-4.69a2,2,0,0,1-.25-1q0-10.73,0-21.46c0-.06,0-.12,0-.21l.33,0h4.84c.64,0,.91.28.91.92V29.37c0,.68.26.95.94.95h13.24c.68,0,1-.27,1-.95V9.08c0-.76.23-1,1-1h4.18c.63,0,.9.28.9.9V35.5c0,.53-.13.7-.7.93h-4.68a.92.92,0,0,1-.7-1.09c0-.33,0-.66,0-1,0-.55-.38-.76-.86-.48-.75.42-1.48.87-2.24,1.28a8.51,8.51,0,0,1-2.62,1.28Z"/><path class="cls-1" d="M31.53,36.43c-.62-.24-.71-.37-.71-1.08V1c0-.8.23-1,1-1H36c.64,0,.91.27.91.92V8.08h5v6.08h-5V35.35c0,.72-.09.85-.74,1.08Z"/><path class="cls-1" d="M108.82,36.43c-.61-.26-.7-.39-.7-1.09V8.11h6.07v.31q0,13.53,0,27.07a.9.9,0,0,1-.7.94Z"/><path class="cls-1" d="M108.13,5.56V0l.3,0h4.86c.63,0,.9.27.9.9V5.56Z"/><path class="cls-1" d="M183.92,6.08A3,3,0,1,1,187,3,3,3,0,0,1,183.92,6.08Zm0-.62a2.43,2.43,0,0,0,2.47-2.41,2.43,2.43,0,0,0-4.86,0A2.42,2.42,0,0,0,183.88,5.46Z"/><path class="cls-1" d="M183.35,3.29V4.41h-.66V1.46c.61,0,1.21,0,1.81,0a.71.71,0,0,1,.64.58.83.83,0,0,1-.37,1c.53.33.28.91.47,1.41a2.3,2.3,0,0,1-.53,0c-.08,0-.16-.14-.18-.23a3.56,3.56,0,0,0-.08-.57.61.61,0,0,0-.35-.32A3.72,3.72,0,0,0,183.35,3.29Zm0-.5h.77a.37.37,0,0,0,.37-.4.35.35,0,0,0-.36-.41c-.25,0-.51,0-.78,0Z"/></g></g></svg>