<svg width="459" height="459" viewBox="0 0 459 459" fill="none" xmlns="http://www.w3.org/2000/svg">
<path fill-rule="evenodd" clip-rule="evenodd" d="M229.5 1.04541e-05C102.751 -6.26727e-07 6.16619e-05 102.751 5.05811e-05 229.5C3.95003e-05 356.249 102.751 459 229.5 459C356.249 459 459 356.249 459 229.5C459 102.751 356.249 2.15348e-05 229.5 1.04541e-05ZM229.854 213.162C220.463 213.162 212.851 220.774 212.851 230.165C212.851 239.555 220.463 247.168 229.854 247.168C239.244 247.168 246.857 239.555 246.857 230.165C246.857 220.774 239.244 213.162 229.854 213.162Z" fill="#EA4D22"/>
<path fill-rule="evenodd" clip-rule="evenodd" d="M229.256 291.276C263.07 291.276 290.482 263.864 290.482 230.05C290.482 196.236 263.07 168.824 229.256 168.824C195.442 168.824 168.031 196.236 168.031 230.05C168.031 263.864 195.442 291.276 229.256 291.276ZM229.256 238.907C234.148 238.907 238.113 234.941 238.113 230.05C238.113 225.159 234.148 221.193 229.256 221.193C224.365 221.193 220.4 225.159 220.4 230.05C220.4 234.941 224.365 238.907 229.256 238.907Z" fill="#FF9A23"/>
<path d="M216.172 255.031C216.736 255.25 217.066 255.658 217.066 256.317C217.066 257.69 215.991 257.839 214.838 257.839H213.143V252.348H214.752C215.787 252.348 216.901 252.52 216.901 253.838C216.901 254.403 216.619 254.803 216.172 255.031ZM214.697 253.14H214.108V254.646H214.697C215.379 254.646 215.944 254.631 215.944 253.893C215.944 253.164 215.364 253.14 214.697 253.14ZM214.108 257.055H214.807C215.568 257.055 216.117 257.031 216.117 256.27C216.117 255.446 215.45 255.431 214.846 255.431H214.108V257.055ZM221.303 254.474C221.617 254.866 221.774 255.462 221.75 256.137H218.832C218.848 256.866 219.177 257.235 219.828 257.235C220.401 257.235 220.699 256.992 220.785 256.513L221.687 256.584C221.483 257.486 220.84 257.933 219.836 257.933C219.224 257.933 218.753 257.737 218.416 257.392C218.055 257.023 217.89 256.506 217.89 255.87C217.89 255.266 218.063 254.748 218.416 254.372C218.761 254.011 219.232 253.823 219.828 253.823C220.448 253.823 220.973 254.058 221.303 254.474ZM219.828 254.521C219.459 254.521 219.193 254.646 219.036 254.866C218.91 255.039 218.855 255.25 218.84 255.439H220.801C220.785 255.219 220.715 254.991 220.581 254.827C220.409 254.615 220.173 254.521 219.828 254.521ZM224.701 257.933C223.783 257.933 222.99 257.533 222.959 256.592L223.83 256.49C223.838 257 224.191 257.266 224.708 257.266C225.234 257.266 225.509 257.078 225.509 256.749C225.509 256.404 225.022 256.341 224.434 256.192C223.736 256.011 223.069 255.792 223.069 254.999C223.069 254.16 223.83 253.823 224.614 253.823C225.469 253.823 226.199 254.136 226.285 255.07L225.43 255.211C225.407 254.725 225.109 254.489 224.614 254.489C224.269 254.489 223.947 254.623 223.947 254.929C223.947 255.235 224.308 255.329 224.81 255.439C225.548 255.603 226.387 255.768 226.387 256.694C226.387 257.643 225.564 257.933 224.701 257.933ZM230.279 257.878C229.291 257.878 228.796 257.588 228.796 256.717V254.662H227.761V253.917H228.796V252.826H229.706V253.917H231.103V254.662H229.706V256.631C229.706 257.015 229.91 257.102 230.373 257.102C230.585 257.102 230.82 257.078 231.087 257L231.103 257.784C230.867 257.847 230.522 257.878 230.279 257.878ZM239.279 257.933C238.024 257.933 237.271 257.157 237.271 255.878C237.271 254.686 238.032 253.823 239.279 253.823C240.51 253.823 241.279 254.693 241.279 255.878C241.279 257.11 240.487 257.933 239.279 257.933ZM239.279 257.251C239.616 257.251 239.851 257.157 240.008 256.968C240.197 256.741 240.283 256.38 240.283 255.878C240.283 255.376 240.197 255.015 240.001 254.788C239.844 254.599 239.608 254.505 239.279 254.505C238.957 254.505 238.722 254.591 238.557 254.772C238.353 254.991 238.267 255.36 238.267 255.878C238.267 256.396 238.353 256.764 238.565 256.984C238.722 257.164 238.957 257.251 239.279 257.251ZM244.442 257.839H243.516V254.662H242.551V253.917H243.516V253.344C243.516 252.748 243.9 252.316 244.936 252.316C245.257 252.316 245.532 252.348 245.728 252.379L245.712 253.124C245.454 253.085 245.242 253.062 245.069 253.062C244.606 253.062 244.442 253.172 244.442 253.423V253.917H245.783V254.662H244.442V257.839ZM210.734 263.465V268.055H211.966V268.847H208.436V268.055H209.809V264.94C209.565 265.176 209.157 265.278 208.718 265.278C208.64 265.278 208.561 265.27 208.491 265.262V264.454C209.354 264.454 209.824 264.148 209.95 263.465H210.734ZM214.94 263.371C216.525 263.371 216.878 264.815 216.878 265.999C216.878 267.733 216.368 268.933 214.838 268.933C213.81 268.933 213.277 268.321 213.183 267.474L214.069 267.317C214.116 267.772 214.328 268.164 214.877 268.164C215.622 268.164 215.96 267.513 215.983 266.274C215.709 266.729 215.301 267.011 214.736 267.011C213.716 267.011 213.049 266.258 213.049 265.215C213.049 264.375 213.544 263.371 214.94 263.371ZM214.909 266.227C215.528 266.227 215.866 265.788 215.866 265.176C215.866 264.642 215.622 264.148 214.948 264.148C214.265 264.148 213.983 264.501 213.983 265.231C213.983 265.866 214.257 266.227 214.909 266.227ZM218.04 264.266V263.465H221.585V264.266C220.432 265.348 219.742 267.066 219.656 268.839H218.675C218.777 267.168 219.42 265.497 220.613 264.266H218.04ZM225.72 265.952C226.301 266.148 226.599 266.682 226.599 267.27C226.599 268.368 225.791 268.933 224.693 268.933C223.485 268.933 222.826 268.196 222.818 267.176L223.759 267.035C223.751 267.733 224.081 268.164 224.693 268.164C225.281 268.164 225.642 267.859 225.642 267.278C225.642 266.643 225.179 266.439 224.732 266.439H224.238V265.623H224.638C225.022 265.623 225.438 265.435 225.438 264.885C225.438 264.43 225.187 264.132 224.693 264.132C223.987 264.132 223.838 264.713 223.853 265.136L222.888 264.995C222.936 263.999 223.657 263.371 224.693 263.371C225.642 263.371 226.395 263.881 226.395 264.87C226.395 265.34 226.144 265.733 225.72 265.952ZM230.765 266.533H228.326V265.709H230.765V266.533ZM233.638 268.039H236.242V268.839H232.5C232.563 267.521 233.206 266.878 234.1 266.321C234.689 265.944 235.269 265.646 235.269 264.964C235.269 264.47 235.034 264.148 234.516 264.148C233.755 264.148 233.653 264.776 233.661 265.231L232.688 265.089C232.681 264.266 233.159 263.371 234.548 263.371C235.567 263.371 236.234 263.968 236.234 264.987C236.234 265.921 235.646 266.376 234.846 266.878C234.249 267.239 233.771 267.529 233.638 268.039ZM239.271 263.371C240.652 263.371 241.303 264.525 241.303 266.148C241.303 267.796 240.652 268.933 239.271 268.933C237.945 268.933 237.247 267.984 237.247 266.148C237.247 264.517 237.898 263.371 239.271 263.371ZM238.502 264.556C238.298 264.878 238.243 265.411 238.243 266.148C238.243 266.596 238.267 266.964 238.322 267.262L239.773 264.273C239.64 264.195 239.475 264.156 239.271 264.156C238.894 264.156 238.659 264.289 238.502 264.556ZM239.977 267.859C240.228 267.537 240.306 266.956 240.306 266.148C240.306 265.662 240.283 265.262 240.205 264.956L238.73 268.015C238.871 268.117 239.043 268.164 239.271 268.164C239.593 268.164 239.82 268.062 239.977 267.859ZM243.367 268.039H245.971V268.839H242.229C242.292 267.521 242.935 266.878 243.83 266.321C244.418 265.944 244.999 265.646 244.999 264.964C244.999 264.47 244.763 264.148 244.245 264.148C243.485 264.148 243.383 264.776 243.39 265.231L242.418 265.089C242.41 264.266 242.888 263.371 244.277 263.371C245.297 263.371 245.963 263.968 245.963 264.987C245.963 265.921 245.375 266.376 244.575 266.878C243.979 267.239 243.5 267.529 243.367 268.039ZM250.044 265.952C250.624 266.148 250.922 266.682 250.922 267.27C250.922 268.368 250.114 268.933 249.016 268.933C247.808 268.933 247.149 268.196 247.141 267.176L248.082 267.035C248.075 267.733 248.404 268.164 249.016 268.164C249.604 268.164 249.965 267.859 249.965 267.278C249.965 266.643 249.502 266.439 249.055 266.439H248.561V265.623H248.961C249.345 265.623 249.761 265.435 249.761 264.885C249.761 264.43 249.51 264.132 249.016 264.132C248.31 264.132 248.161 264.713 248.177 265.136L247.212 264.995C247.259 263.999 247.98 263.371 249.016 263.371C249.965 263.371 250.718 263.881 250.718 264.87C250.718 265.34 250.467 265.733 250.044 265.952Z" fill="#F0E8D7"/>
<path d="M200.718 447.573L200.772 446.982L201.671 447.066L201.629 447.516C201.565 448.287 201.65 448.95 202.646 449.035C203.522 449.114 203.733 448.526 203.788 447.837L204.227 442.849L205.126 442.934L204.675 448.064C204.596 448.94 204.104 449.965 202.553 449.823C201.273 449.714 200.603 448.877 200.704 447.582L200.718 447.573Z" fill="#F0E8D7"/>
<path d="M206.684 447.548C206.777 446.045 207.782 445.006 209.322 445.096C210.847 445.195 211.74 446.344 211.647 447.847C211.551 449.409 210.498 450.4 209.01 450.298C207.456 450.216 206.585 449.17 206.684 447.548ZM210.185 449.254C210.483 448.942 210.648 448.439 210.691 447.796C210.734 447.153 210.637 446.632 210.366 446.272C210.145 445.997 209.799 445.836 209.289 445.791C208.811 445.765 208.432 445.874 208.181 446.101C207.846 446.415 207.689 446.932 207.655 447.59C207.606 448.256 207.697 448.8 207.997 449.143C208.232 449.409 208.57 449.556 209.07 449.587C209.571 449.618 209.942 449.495 210.199 449.245L210.185 449.254Z" fill="#F0E8D7"/>
<path d="M215.995 449.745L217.822 449.8L217.796 450.569L213.097 450.422L213.132 449.668L215.116 449.726L215.225 446.266L213.531 446.208L213.558 445.44L216.154 445.522L216.018 449.751L215.995 449.745ZM216.113 443.501L216.073 444.605L215.126 444.569L215.165 443.464L216.113 443.501Z" fill="#F0E8D7"/>
<path d="M224.09 447.647L224.086 450.601L223.156 450.594L223.171 447.69C223.167 447.229 223.184 446.834 222.872 446.536C222.592 446.258 222.27 446.237 221.988 446.25C221.541 446.244 220.698 446.416 220.696 447.845L220.685 450.592L219.791 450.582L219.814 445.609L220.708 445.62L220.71 446.371C220.96 445.817 221.451 445.507 222.24 445.502C222.895 445.5 223.369 445.682 223.717 446.074C224.105 446.5 224.104 447.214 224.099 447.661L224.09 447.647Z" fill="#F0E8D7"/>
<path d="M233.742 448.987L233.594 446.102L232.23 446.178L232.192 445.429L233.556 445.353L233.486 443.967L234.369 443.926L234.438 445.312L236.255 445.219L236.294 445.968L234.477 446.061L234.622 448.909C234.648 449.376 234.895 449.499 235.592 449.472C235.86 449.467 236.182 449.392 236.421 449.308L236.488 450.137C236.277 450.204 235.91 450.267 235.568 450.277C234.352 450.342 233.799 449.994 233.742 448.987Z" fill="#F0E8D7"/>
<path d="M242.808 446.737L243.043 449.704L242.118 449.77L241.894 446.854C241.853 446.396 241.827 446.026 241.51 445.751C241.209 445.504 240.882 445.505 240.608 445.532C240.164 445.564 239.329 445.751 239.447 447.186L239.669 449.968L238.78 450.032L238.23 443.083L239.118 443.02L239.329 445.751C239.56 445.131 240.088 444.818 240.792 444.768C241.45 444.706 241.93 444.865 242.312 445.217C242.734 445.603 242.793 446.321 242.817 446.751L242.808 446.737Z" fill="#F0E8D7"/>
<path d="M249.54 446.797L245.78 447.193C245.926 448.284 246.436 448.754 247.358 448.65C248.193 448.561 248.611 448.159 248.66 447.396L249.537 447.378C249.443 448.553 248.71 449.238 247.454 449.365C246.694 449.45 246.071 449.278 245.593 448.829C245.131 448.408 244.878 447.786 244.785 447.012C244.703 446.288 244.841 445.609 245.213 445.098C245.592 444.565 246.172 444.241 246.881 444.167C247.664 444.089 248.448 444.338 248.923 444.944C249.268 445.395 249.495 446.071 249.531 446.783L249.54 446.797ZM245.857 445.565C245.716 445.881 245.689 446.225 245.722 446.476L248.55 446.169C248.508 445.904 248.371 445.542 248.198 445.316C247.898 444.973 247.518 444.851 246.985 444.897C246.424 444.959 246.033 445.211 245.871 445.557L245.857 445.565Z" fill="#F0E8D7"/>
<path d="M262 444.966C262.21 446.231 261.578 447.378 260.005 447.654C258.726 447.873 257.728 447.133 257.509 445.854L258.339 445.593C258.51 446.63 259.203 447.05 259.915 446.917C260.901 446.757 261.317 446.124 261.143 445.05C260.988 444.138 260.364 443.737 259.407 443.88C258.826 443.973 258.457 444.231 258.21 444.725L257.455 444.786L257.375 441.071L260.868 440.486L260.998 441.258L258.225 441.724L258.252 443.754C258.501 443.394 258.924 443.163 259.394 443.077C260.571 442.881 261.715 443.379 261.963 444.969L262 444.966Z" fill="#F0E8D7"/>
<path d="M268.124 442.57C268.523 444.61 268.011 446.187 266.367 446.506C264.797 446.82 263.727 445.795 263.28 443.513C262.889 441.487 263.393 439.895 265.023 439.585C266.653 439.275 267.719 440.553 268.11 442.579L268.124 442.57ZM267.192 442.756C267.04 441.978 266.855 441.374 266.61 440.96L265.35 445.701C265.588 445.811 265.881 445.849 266.226 445.78C266.673 445.688 266.979 445.488 267.143 445.178C267.433 444.659 267.389 443.836 267.178 442.764L267.192 442.756ZM264.235 443.333C264.379 444.096 264.555 444.686 264.786 445.109L266.035 440.413C265.796 440.304 265.526 440.271 265.181 440.34C264.594 440.457 264.274 440.762 264.137 441.249C264.009 441.749 264.06 442.452 264.22 443.341L264.235 443.333Z" fill="#F0E8D7"/>
<path d="M272.106 444.339L271.683 442.389L269.757 442.818L269.606 442.174L271.533 441.745L271.11 439.796L271.792 439.643L272.222 441.607L274.149 441.178L274.299 441.822L272.373 442.251L272.795 444.2L272.114 444.353L272.106 444.339Z" fill="#F0E8D7"/>
<path d="M280.421 440.952C280.733 442.195 280.195 443.402 278.653 443.795C277.396 444.116 276.337 443.47 276.022 442.19L276.824 441.85C277.075 442.859 277.793 443.224 278.503 443.054C279.461 442.814 279.845 442.161 279.575 441.087C279.346 440.181 278.696 439.833 277.753 440.064C277.183 440.209 276.831 440.495 276.629 441L275.871 441.122L275.487 437.414L278.93 436.549L279.133 437.316L276.392 437.996L276.589 440.021C276.807 439.641 277.213 439.381 277.68 439.258C278.843 438.974 280.002 439.367 280.398 440.946L280.421 440.952Z" fill="#F0E8D7"/>
<path d="M286.272 438.062C286.833 440.083 286.449 441.681 284.844 442.131C283.305 442.561 282.16 441.638 281.522 439.392C280.955 437.394 281.33 435.782 282.935 435.332C284.54 434.882 285.713 436.078 286.272 438.062ZM285.345 438.322C285.127 437.563 284.905 436.962 284.617 436.573L283.758 441.405C284.002 441.491 284.301 441.507 284.651 441.415C285.096 441.286 285.371 441.066 285.518 440.728C285.754 440.183 285.658 439.371 285.359 438.313L285.345 438.322ZM282.434 439.141C282.644 439.885 282.872 440.464 283.131 440.869L283.979 436.083C283.735 435.996 283.459 435.986 283.131 436.084C282.555 436.252 282.274 436.592 282.166 437.061C282.07 437.582 282.186 438.265 282.434 439.141Z" fill="#F0E8D7"/>
<path d="M294.093 436.608C293.602 435.162 294.147 433.836 295.584 433.331C296.791 432.924 297.71 433.402 298.201 434.23L297.473 434.662C297.131 434.15 296.676 433.707 295.826 433.998C295.281 434.186 295.003 434.467 294.879 434.81C294.752 435.214 294.832 435.707 295.028 436.266C295.387 437.326 295.902 437.967 297.042 437.58C297.761 437.327 298.045 436.928 297.992 436.187L298.827 436.001C298.981 437.009 298.367 437.894 297.278 438.27C295.832 438.761 294.62 438.148 294.093 436.608Z" fill="#F0E8D7"/>
<path d="M304.655 433.105L301.118 434.43C301.526 435.443 302.13 435.779 303.014 435.448C303.804 435.153 304.111 434.662 303.953 433.907L304.791 433.661C305.001 434.829 304.459 435.671 303.27 436.106C302.545 436.382 301.905 436.375 301.332 436.059C300.775 435.772 300.371 435.22 300.096 434.496C299.838 433.8 299.804 433.125 300.038 432.543C300.269 431.924 300.758 431.479 301.439 431.229C302.178 430.946 302.986 431.007 303.607 431.468C304.064 431.815 304.456 432.412 304.669 433.096L304.655 433.105ZM300.788 432.831C300.723 433.178 300.784 433.509 300.868 433.748L303.535 432.746C303.428 432.501 303.196 432.175 302.969 432.02C302.601 431.756 302.205 431.74 301.698 431.925C301.176 432.119 300.858 432.462 300.788 432.831Z" fill="#F0E8D7"/>
<path d="M309.424 432.785L311.116 432.091L311.397 432.793L307.044 434.563L306.763 433.862L308.6 433.12L306.548 428.065L305.022 428.68L304.741 427.979L307.106 427.02L309.453 432.768L309.424 432.785Z" fill="#F0E8D7"/>
<path d="M316.359 428.21L312.896 429.723C313.355 430.725 313.994 431.021 314.852 430.647C315.631 430.301 315.907 429.79 315.72 429.052L316.542 428.777C316.803 429.934 316.315 430.803 315.153 431.318C314.446 431.622 313.808 431.652 313.215 431.368C312.638 431.111 312.214 430.591 311.887 429.878C311.586 429.207 311.53 428.526 311.718 427.933C311.918 427.293 312.376 426.829 313.032 426.536C313.754 426.224 314.574 426.239 315.206 426.656C315.668 426.98 316.104 427.551 316.345 428.218L316.359 428.21ZM312.486 428.153C312.444 428.506 312.519 428.828 312.618 429.059L315.237 427.911C315.115 427.674 314.869 427.357 314.628 427.21C314.231 426.964 313.83 426.97 313.339 427.184C312.834 427.406 312.525 427.763 312.486 428.153Z" fill="#F0E8D7"/>
<path d="M322.388 425.099C323.08 426.56 322.624 427.873 321.436 428.441C320.832 428.723 320.22 428.7 319.644 428.347L319.959 429.009L319.146 429.394L316.178 423.088L316.992 422.702L318.115 425.085C318.241 424.451 318.602 423.986 319.235 423.688C320.459 423.116 321.735 423.672 322.402 425.09L322.388 425.099ZM321.494 425.513C320.985 424.425 320.347 423.935 319.34 424.417C318.857 424.645 318.619 424.96 318.563 425.321C318.484 425.773 318.655 426.289 318.875 426.757C319.41 427.887 320.122 428.275 321.001 427.87C321.498 427.633 321.744 427.333 321.828 426.955C321.919 426.554 321.765 426.066 321.509 425.504L321.494 425.513Z" fill="#F0E8D7"/>
<path d="M326.301 420.212L326.662 420.982C326.568 421.019 326.431 421.081 326.316 421.148C325.326 421.658 324.673 422.412 325.428 423.913L326.417 425.874L325.612 426.274L323.367 421.836L324.171 421.436L324.631 422.341C324.537 421.663 325.076 420.977 325.873 420.466C325.959 420.415 326.201 420.271 326.296 420.235L326.301 420.212Z" fill="#F0E8D7"/>
<path d="M334.555 421.57C334.392 421.686 334.258 421.785 334.078 421.872C333.598 422.137 333.212 422.038 332.921 421.613C332.952 422.25 332.602 422.767 331.857 423.17C331.126 423.565 330.158 423.559 329.71 422.706C329.202 421.753 329.852 421.059 330.478 420.552L331.779 419.492C331.565 419.098 331.423 418.892 331.199 418.774C330.983 418.671 330.636 418.703 330.242 418.917C329.483 419.329 329.321 419.772 329.682 420.446L328.849 420.766C328.587 420.227 328.553 419.745 328.768 419.328C328.964 418.942 329.37 418.585 329.935 418.269C331.046 417.669 331.87 417.855 332.386 418.823L333.511 420.915C333.646 421.144 333.705 421.244 333.957 421.114C334.028 421.072 334.099 421.03 334.182 420.942L334.555 421.57ZM332.365 420.611L332.052 420.082L330.903 421.073C330.496 421.429 330.222 421.747 330.495 422.24C330.718 422.649 331.204 422.688 331.627 422.457C332.58 421.95 332.692 421.227 332.357 420.596L332.365 420.611Z" fill="#F0E8D7"/>
<path d="M336.379 418.983L334.934 416.482L333.749 417.185L333.36 416.528L334.545 415.826L333.842 414.641L334.613 414.183L335.324 415.383L336.881 414.46L337.278 415.131L335.722 416.054L337.141 418.512C337.378 418.912 337.654 418.922 338.254 418.566C338.482 418.431 338.743 418.219 338.909 418.043L339.332 418.757C339.186 418.901 338.897 419.13 338.589 419.294C337.547 419.912 336.887 419.84 336.379 418.983Z" fill="#F0E8D7"/>
<path d="M343.262 415.558L344.816 414.598L345.197 415.241L341.199 417.708L340.81 417.051L342.492 416.015L340.679 413.056L339.24 413.948L338.851 413.292L341.038 411.937L343.246 415.529L343.262 415.558ZM339.937 410.274L340.495 411.217L339.696 411.691L339.137 410.748L339.937 410.274Z" fill="#F0E8D7"/>
<path d="M345.195 412.309C344.368 411.043 344.563 409.615 345.848 408.757C347.128 407.921 348.526 408.327 349.345 409.578C350.198 410.886 349.957 412.302 348.706 413.121C347.412 413.965 346.088 413.651 345.195 412.309ZM349.013 411.588C349.064 411.153 348.896 410.674 348.551 410.126C348.192 409.586 347.816 409.211 347.384 409.101C347.043 409.013 346.661 409.085 346.241 409.354C345.835 409.613 345.597 409.928 345.547 410.267C345.468 410.719 345.653 411.226 346.02 411.781C346.388 412.335 346.773 412.724 347.219 412.826C347.552 412.899 347.911 412.821 348.331 412.553C348.765 412.276 348.98 411.955 349.022 411.603L349.013 411.588Z" fill="#F0E8D7"/>
<path d="M354.213 405.649L355.906 408.08L355.14 408.611L353.473 406.223C353.208 405.84 352.984 405.529 352.569 405.447C352.177 405.371 351.9 405.554 351.674 405.727C351.32 405.976 350.719 406.621 351.524 407.784L353.092 410.038L352.355 410.553L349.51 406.47L350.247 405.956L350.679 406.587C350.554 405.986 350.776 405.449 351.436 405C351.981 404.618 352.472 404.501 352.978 404.607C353.529 404.723 353.959 405.318 354.193 405.68L354.213 405.649Z" fill="#F0E8D7"/>
<path d="M361.511 399.894C361.118 399.394 361.192 398.771 361.692 398.378C362.192 397.985 362.815 398.059 363.208 398.56C363.601 399.06 363.536 399.697 363.035 400.09C362.521 400.492 361.904 400.395 361.511 399.894Z" fill="#F0E8D7"/>
<path d="M371.35 393.481L370.954 393.041L371.64 392.441L371.932 392.77C372.45 393.35 372.991 393.743 373.741 393.087C374.398 392.504 374.128 391.95 373.658 391.418L370.345 387.652L371.031 387.052L374.426 390.924C375.009 391.582 375.399 392.663 374.23 393.684C373.263 394.527 372.194 394.448 371.342 393.467L371.35 393.481Z" fill="#F0E8D7"/>
<path d="M379.154 386.075L376.391 388.64C377.147 389.427 377.844 389.496 378.536 388.873C379.157 388.293 379.242 387.721 378.824 387.081L379.508 386.541C380.137 387.538 379.97 388.525 379.035 389.388C378.477 389.912 377.883 390.148 377.223 390.076C376.595 390.024 376.019 389.671 375.486 389.099C374.994 388.561 374.704 387.942 374.682 387.319C374.671 386.65 374.941 386.065 375.465 385.581C376.037 385.049 376.821 384.776 377.557 384.977C378.103 385.116 378.699 385.535 379.154 386.075ZM375.476 387.291C375.545 387.636 375.729 387.913 375.899 388.102L377.992 386.166C377.8 385.971 377.465 385.765 377.192 385.695C376.746 385.593 376.361 385.725 375.977 386.087C375.566 386.466 375.404 386.91 375.49 387.283L375.476 387.291Z" fill="#F0E8D7"/>
<path d="M380.921 385.182L381.442 384.564C381.918 385.073 382.576 385.011 383.139 384.465C383.723 383.887 383.822 383.404 383.446 383.029C383.052 382.626 382.343 383.22 381.735 383.561C381.021 383.984 380.282 384.365 379.591 383.655C378.86 382.911 379.253 381.945 379.885 381.32C380.643 380.581 381.579 380.238 382.505 381.02L382.004 381.704C381.508 381.226 380.924 381.282 380.36 381.829C380.02 382.166 379.812 382.694 380.132 383.006C380.461 383.332 380.966 383.013 381.486 382.686C382.349 382.155 383.197 381.536 384.001 382.372C384.845 383.241 384.342 384.215 383.641 384.92C382.848 385.699 381.77 386.029 380.904 385.154L380.921 385.182Z" fill="#F0E8D7"/>
<path d="M385.393 380.716L385.898 380.07C386.402 380.562 387.051 380.486 387.592 379.934C388.153 379.35 388.244 378.853 387.853 378.486C387.445 378.091 386.767 378.705 386.153 379.069C385.439 379.493 384.726 379.916 384.015 379.238C383.264 378.525 383.625 377.539 384.235 376.907C384.962 376.148 385.903 375.783 386.85 376.534L386.371 377.223C385.861 376.754 385.285 376.825 384.739 377.4C384.407 377.751 384.213 378.271 384.542 378.597C384.87 378.923 385.382 378.581 385.884 378.225C386.73 377.666 387.547 377.027 388.394 377.837C389.281 378.681 388.809 379.675 388.102 380.403C387.326 381.21 386.266 381.569 385.371 380.711L385.393 380.716Z" fill="#F0E8D7"/>
<path d="M392.179 374.783L393.407 373.437L393.965 373.955L390.799 377.434L390.241 376.916L391.572 375.451L389.008 373.112L387.863 374.37L387.305 373.852L389.043 371.934L392.171 374.768L392.179 374.783ZM387.521 370.637L388.325 371.375L387.698 372.075L386.88 371.345L387.521 370.637Z" fill="#F0E8D7"/>
<path d="M393.192 371.056C392.019 370.054 391.835 368.638 392.832 367.487C393.657 366.535 394.702 366.475 395.539 366.944L395.108 367.681C394.569 367.422 393.94 367.274 393.356 367.948C392.978 368.385 392.879 368.771 392.957 369.131C393.046 369.541 393.371 369.927 393.83 370.311C394.686 371.038 395.445 371.341 396.227 370.414C396.728 369.828 396.767 369.341 396.344 368.724L396.964 368.144C397.609 368.938 397.53 370.008 396.774 370.881C395.777 372.032 394.422 372.121 393.192 371.056Z" fill="#F0E8D7"/>
<path d="M402.383 363.908C402.292 364.078 402.183 364.22 402.059 364.37C401.71 364.79 401.328 364.862 400.891 364.58C401.156 365.157 401.036 365.768 400.495 366.417C399.967 367.058 399.086 367.426 398.321 366.819C397.49 366.134 397.814 365.248 398.21 364.549L398.998 363.079C398.657 362.798 398.439 362.658 398.177 362.639C397.938 362.627 397.63 362.79 397.349 363.13C396.802 363.802 396.828 364.269 397.42 364.747L396.78 365.359C396.335 364.967 396.118 364.536 396.166 364.063C396.202 363.637 396.435 363.151 396.831 362.646C397.624 361.674 398.462 361.525 399.292 362.209L401.149 363.714C401.347 363.885 401.441 363.946 401.619 363.725C401.659 363.662 401.713 363.591 401.765 363.483L402.355 363.925L402.383 363.908ZM399.998 363.856L399.525 363.48L398.835 364.854C398.602 365.34 398.466 365.729 398.908 366.084C399.271 366.371 399.73 366.234 400.036 365.84C400.713 364.995 400.551 364.3 399.998 363.856Z" fill="#F0E8D7"/>
<path d="M412.115 350.461C412.023 350.631 411.937 350.779 411.822 350.943C411.504 351.383 411.116 351.478 410.674 351.219C410.967 351.778 410.884 352.387 410.391 353.085C409.903 353.76 409.033 354.179 408.247 353.603C407.377 352.981 407.66 352.06 408.003 351.336L408.705 349.82C408.337 349.556 408.127 349.43 407.873 349.425C407.634 349.413 407.329 349.613 407.079 349.973C406.572 350.68 406.635 351.144 407.247 351.591L406.638 352.223C406.173 351.862 405.933 351.425 405.953 350.97C405.966 350.537 406.168 350.031 406.541 349.521C407.272 348.508 408.098 348.308 408.978 348.944L410.909 350.346C411.113 350.495 411.215 350.57 411.384 350.335C411.424 350.272 411.465 350.21 411.522 350.079L412.132 350.489L412.115 350.461ZM409.732 350.542L409.23 350.184L408.616 351.59C408.406 352.081 408.302 352.49 408.764 352.815C409.141 353.093 409.589 352.904 409.881 352.519C410.518 351.639 410.319 350.947 409.724 350.528L409.732 350.542Z" fill="#F0E8D7"/>
<path d="M411.051 346.959L413.499 348.614L412.974 349.389L410.557 347.754C410.175 347.498 409.846 347.269 409.435 347.358C409.053 347.43 408.85 347.705 408.695 347.932C408.445 348.292 408.117 349.104 409.305 349.905L411.574 351.454L411.069 352.197L406.94 349.397L407.444 348.654L408.063 349.078C407.749 348.55 407.753 347.97 408.197 347.32C408.567 346.773 408.979 346.49 409.486 346.402C410.053 346.316 410.64 346.721 411.014 346.962L411.051 346.959Z" fill="#F0E8D7"/>
<path d="M410.774 339.984L411.257 339.235L417.129 342.989L416.647 343.738L416.032 343.35C416.321 343.969 416.253 344.57 415.891 345.131C415.182 346.246 413.826 346.53 412.461 345.66C411.128 344.81 410.765 343.482 411.479 342.344C411.861 341.751 412.338 341.449 412.99 341.41L410.76 339.992L410.774 339.984ZM414.571 342.383C413.79 341.881 412.85 341.532 412.201 342.553C411.88 343.052 411.835 343.465 412.012 343.861C412.179 344.207 412.521 344.524 412.989 344.826C413.98 345.454 414.756 345.592 415.379 344.625C415.626 344.228 415.71 343.849 415.564 343.473C415.432 343.088 415.101 342.725 414.548 342.377L414.571 342.383Z" fill="#F0E8D7"/>
<path d="M421.525 335.693L415.42 332.328L416.454 330.46C417.317 328.888 418.971 328.717 420.831 329.737C422.775 330.803 423.396 332.307 422.546 333.834L421.525 335.693ZM421.278 334.528L421.824 333.528C422.134 332.978 422.171 332.454 421.906 331.975C421.59 331.409 421.066 331.045 420.322 330.637C419.57 330.215 418.905 329.972 418.319 329.992C417.746 330.003 417.363 330.365 417.061 330.93L416.515 331.929L421.264 334.536L421.278 334.528Z" fill="#F0E8D7"/>
<path d="M426.935 325.713C426.865 325.889 426.802 326.042 426.718 326.227C426.462 326.707 426.086 326.853 425.603 326.657C425.982 327.165 425.982 327.783 425.582 328.541C425.188 329.276 424.4 329.801 423.534 329.35C422.583 328.853 422.739 327.911 422.973 327.135L423.454 325.538C423.06 325.328 422.829 325.233 422.579 325.266C422.342 325.29 422.076 325.525 421.867 325.92C421.453 326.686 421.59 327.145 422.263 327.499L421.741 328.213C421.221 327.923 420.933 327.535 420.884 327.062C420.838 326.626 420.972 326.103 421.274 325.538C421.849 324.425 422.653 324.122 423.613 324.634L425.716 325.741C425.94 325.858 426.048 325.91 426.186 325.655C426.226 325.592 426.258 325.516 426.279 325.388L426.935 325.713ZM424.598 326.133L424.064 325.852L423.65 327.332C423.516 327.855 423.457 328.276 423.959 328.538C424.377 328.754 424.791 328.508 425.021 328.083C425.532 327.123 425.225 326.475 424.598 326.133Z" fill="#F0E8D7"/>
<path d="M427.03 318.845L429.676 320.151L429.259 320.977L426.653 319.705C426.244 319.504 425.889 319.328 425.49 319.468C425.119 319.592 424.961 319.878 424.846 320.14C424.65 320.526 424.444 321.382 425.716 321.997L428.169 323.206L427.772 324.001L423.306 321.806L423.703 321.011L424.381 321.341C423.991 320.878 423.92 320.303 424.262 319.579C424.547 318.985 424.925 318.646 425.412 318.492C425.951 318.327 426.607 318.652 427.007 318.839L427.03 318.845Z" fill="#F0E8D7"/>
<path d="M427.47 313.046L427.856 312.199L431.954 316.311C432.724 317.089 433.091 317.644 432.774 318.314C432.679 318.544 432.518 318.793 432.361 318.983L431.597 318.606C431.729 318.471 431.872 318.289 431.976 318.073C432.137 317.727 431.831 317.406 431.188 316.746L425.892 316.47L426.284 315.601L429.124 315.867C429.476 315.908 429.986 315.954 430.526 316.019C430.24 315.764 430.09 315.641 429.489 315.052L427.442 313.063L427.47 313.046Z" fill="#F0E8D7"/>
<path d="M432.819 307.617L431.349 311.093C432.36 311.497 433.03 311.293 433.399 310.418C433.73 309.642 433.571 309.081 432.924 308.673L433.33 307.893C434.314 308.544 434.562 309.516 434.058 310.683C433.767 311.396 433.309 311.861 432.69 312.054C432.094 312.253 431.411 312.175 430.713 311.876C430.037 311.582 429.521 311.135 429.251 310.581C428.969 309.976 428.967 309.322 429.255 308.668C429.56 307.947 430.175 307.389 430.925 307.254C431.492 307.169 432.2 307.289 432.833 307.608L432.819 307.617ZM429.956 310.241C430.162 310.523 430.451 310.718 430.681 310.814L431.788 308.189C431.535 308.088 431.151 308.026 430.866 308.099C430.419 308.191 430.119 308.465 429.917 308.971C429.7 309.485 429.726 309.952 429.95 310.263L429.956 310.241Z" fill="#F0E8D7"/>
<path d="M435.846 303.969L436.513 302.262L437.217 302.539L435.507 306.911L434.802 306.634L435.526 304.796L430.45 302.808L429.838 304.348L429.134 304.071L430.057 301.69L435.838 303.955L435.846 303.969Z" fill="#F0E8D7"/>
<path d="M437.53 294.345C436.09 293.868 435.353 292.626 435.836 291.162C436.313 289.722 437.657 289.156 439.089 289.619C440.575 290.108 441.246 291.37 440.798 292.794C440.3 294.266 439.085 294.851 437.545 294.337L437.53 294.345ZM440.065 291.395C439.845 291.024 439.394 290.751 438.791 290.549C438.175 290.355 437.657 290.295 437.246 290.481C436.929 290.63 436.674 290.916 436.515 291.396C436.362 291.854 436.374 292.233 436.538 292.541C436.761 292.949 437.212 293.222 437.845 293.444C438.47 293.653 439.017 293.695 439.428 293.51C439.744 293.36 439.976 293.068 440.121 292.597C440.28 292.116 440.245 291.732 440.073 291.409L440.065 291.395Z" fill="#F0E8D7"/>
<path d="M440.442 283.472L443.279 284.318L443.015 285.208L440.224 284.373C439.783 284.249 439.403 284.127 439.037 284.325C438.686 284.513 438.582 284.826 438.504 285.085C438.385 285.502 438.306 286.379 439.668 286.787L442.299 287.581L442.042 288.448L437.267 287.034L437.525 286.167L438.246 286.376C437.779 285.978 437.62 285.416 437.848 284.663C438.034 284.032 438.34 283.638 438.8 283.404C439.311 283.159 440.01 283.362 440.428 283.481L440.442 283.472Z" fill="#F0E8D7"/>
<path d="M443.855 275.756L443.968 274.937C444.642 275.097 445.179 274.701 445.356 273.959C445.545 273.172 445.363 272.701 444.848 272.582C444.288 272.451 444.016 273.326 443.674 273.953C443.28 274.688 442.878 275.409 441.917 275.188C440.911 274.955 440.725 273.926 440.923 273.056C441.162 272.027 441.79 271.231 442.993 271.405L442.934 272.25C442.255 272.113 441.803 272.458 441.62 273.222C441.512 273.691 441.612 274.25 442.058 274.352C442.504 274.454 442.763 273.914 443.028 273.352C443.468 272.435 443.861 271.469 444.989 271.745C446.178 272.025 446.272 273.127 446.036 274.096C445.786 275.171 445.044 276.035 443.847 275.742L443.855 275.756Z" fill="#F0E8D7"/>
<path d="M445.815 268.516L442.997 267.929L442.714 269.274L441.966 269.119L442.249 267.774L440.89 267.5L441.073 266.638L442.433 266.913L442.789 265.139L443.537 265.293L443.166 267.076L445.961 267.657C446.422 267.751 446.608 267.544 446.745 266.864C446.801 266.6 446.814 266.264 446.804 266.019L447.626 266.169C447.633 266.376 447.608 266.758 447.536 267.09C447.293 268.276 446.812 268.735 445.823 268.53L445.815 268.516Z" fill="#F0E8D7"/>
<path d="M448.934 259.295C448.933 259.489 448.915 259.654 448.877 259.85C448.774 260.393 448.471 260.631 447.948 260.594C448.458 260.967 448.643 261.571 448.494 262.393C448.344 263.215 447.743 263.957 446.793 263.787C445.738 263.603 445.595 262.645 445.59 261.857L445.559 260.177C445.107 260.098 444.859 260.071 444.637 260.184C444.428 260.288 444.233 260.577 444.146 261.015C443.99 261.86 444.25 262.265 444.989 262.406L444.715 263.244C444.14 263.122 443.74 262.838 443.561 262.404C443.383 262.008 443.352 261.467 443.463 260.841C443.695 259.604 444.349 259.081 445.427 259.271L447.765 259.699C448.021 259.74 448.134 259.769 448.196 259.482C448.205 259.4 448.214 259.317 448.211 259.183L448.934 259.295ZM446.833 260.406L446.23 260.3L446.288 261.829C446.319 262.37 446.385 262.775 446.951 262.883C447.403 262.962 447.735 262.611 447.82 262.136C448.019 261.072 447.527 260.535 446.833 260.406Z" fill="#F0E8D7"/>
<path d="M444.806 253.31L444.936 252.423L449.766 253.148C451.083 253.352 451.752 254.383 451.537 255.842C451.383 256.82 450.8 257.822 449.549 257.696L449.621 256.842C450.446 256.932 450.731 256.435 450.86 255.645C450.981 254.84 450.577 254.191 449.69 254.062L448.848 253.943C449.364 254.39 449.56 254.949 449.46 255.626C449.259 256.98 448.108 257.74 446.572 257.493C445.113 257.277 444.256 256.222 444.451 254.891C444.569 254.146 444.915 253.689 445.492 253.425L444.792 253.319L444.806 253.31ZM447.15 253.619C445.984 253.442 445.33 253.868 445.18 254.787C445.112 255.29 445.19 255.649 445.425 255.915C445.671 256.232 446.122 256.408 446.708 256.486C447.86 256.671 448.59 256.47 448.77 255.341C448.84 254.874 448.734 254.532 448.522 254.272C448.219 253.892 447.676 253.692 447.15 253.619Z" fill="#F0E8D7"/>
<path d="M448.495 246.222L448.049 249.96C449.136 250.068 449.718 249.684 449.823 248.753C449.927 247.92 449.631 247.42 448.886 247.206L449.055 246.353C450.189 246.703 450.683 247.568 450.52 248.823C450.433 249.588 450.132 250.153 449.592 250.511C449.075 250.876 448.419 250.975 447.64 250.897C446.912 250.808 446.281 250.526 445.868 250.057C445.424 249.567 445.245 248.94 445.334 248.212C445.426 247.424 445.845 246.732 446.536 246.399C447.047 246.154 447.756 246.081 448.464 246.202L448.495 246.222ZM446.485 249.536C446.769 249.754 447.096 249.849 447.343 249.876L447.677 247.054C447.415 247.036 447.025 247.094 446.765 247.209C446.357 247.432 446.15 247.767 446.099 248.299C446.042 248.853 446.185 249.29 446.5 249.528L446.485 249.536Z" fill="#F0E8D7"/>
</svg>
