<?xml version="1.0" encoding="UTF-8"?>
<svg xmlns="http://www.w3.org/2000/svg" xmlns:xlink="http://www.w3.org/1999/xlink" width="45px" height="48px" viewBox="0 0 45 48" version="1.1">
<g id="surface1">
<path style=" stroke:none;fill-rule:nonzero;fill:rgb(0%,0%,0%);fill-opacity:1;" d="M 42.898438 15 C 42.398438 13.199219 41 11.699219 39.101562 11.199219 C 35.800781 10.300781 22.398438 10.300781 22.398438 10.300781 C 22.398438 10.300781 9.101562 10.300781 5.699219 11.199219 C 4 11.699219 2.5 13.199219 2.101562 15 C 1.199219 18.300781 1.199219 25.300781 1.199219 25.300781 C 1.199219 25.300781 1.199219 32.199219 2.101562 35.601562 C 2.601562 37.398438 4 38.898438 5.898438 39.398438 C 9.199219 40.300781 22.601562 40.300781 22.601562 40.300781 C 22.601562 40.300781 35.898438 40.300781 39.300781 39.398438 C 41.101562 38.898438 42.601562 37.5 43.101562 35.601562 C 44 32.300781 44 25.300781 44 25.300781 C 44 25.300781 43.800781 18.300781 42.898438 15 Z M 18.199219 31.699219 L 18.199219 18.898438 L 29.300781 25.300781 Z M 18.199219 31.699219 "/>
</g>
</svg>
